<svg id="圖層_1" data-name="圖層 1" xmlns="http://www.w3.org/2000/svg" viewBox="0 0 384 127"><defs><style>.cls-1{fill:#48b8e7;}.cls-2{fill:#fff;}</style></defs><path class="cls-1" d="M0,127V0H384V127ZM48.77,90.35l-1.94-2.19c-1.28.94-2.95,1.62-3.77,2.86-3.18,4.85-5.71,10.18-9.29,14.69-1.32,1.66-5.24,2.67-7.28,2s-4.49-4-4.4-6c.48-10.5,1.72-21,2.77-32.27,7,7.43,9.94,8.8,18.49,9.86A6,6,0,0,1,47,81.72c5.11,7.44,13.33,7.47,18.35-.07,2.43-3.64,9.34-3.57,11.74.14,4.72,7.27,13.18,7.23,18,.21,1.1-1.59,3.6-3.16,5.41-3.12,5.74.14,9.67-2.88,13.54-6.34.8-.73,1.58-1.47,3.36-3.12,1.08,11.62,2.27,22.11,2.81,32.63.09,1.82-2.32,5-4.08,5.38-2.28.55-6.11-.19-7.45-1.85a96.75,96.75,0,0,1-9.52-15.06c-1.54-2.83-2.64-2.74-4.63-.75,1.54,3.38,2.73,6.68,4.47,9.66a37.71,37.71,0,0,0,6.18,8.4c2,2,4.85,3.87,7.53,4.21,7.62,1,12.91-5.28,12-13.42-1.52-13.2-3-26.4-4.59-39.59a25.73,25.73,0,0,0-6.89-15.15,12.81,12.81,0,0,1-3.09-6.67c-.5-3.61-1.82-5.58-5.62-5.46-1.83.06-3.67,0-5.5,0-9.23,0-9.23,0-10.36,8.87,0,.27-.38.5-.63.81H73.47c-1.1-4.88,1.71-5.39,5-5.71,6.22-.6,9.06-4.06,7.42-9-1.3-4-4.57-4.74-8.33-5-6.68-.44-13.82,2-19.86-2.92-.18-.14-.86.33-1.41.56.54,5.29,4.38,6.33,8.54,6.54,4.66.25,9.35-.1,14,.25,1.11.09,2.08,1.93,3.12,3-1,.88-2,2.59-2.89,2.52C72,31.11,69.2,35.13,68.51,41.75H53.65c-1.1-10-1.1-10-10.49-10h-5c-3.68-.09-5.33,1.49-5.62,5.34a11,11,0,0,1-2.87,6.19c-3.76,4-6.51,8.34-7,14-.32,3.81-1.08,7.58-1.52,11.38-1.15,10.4-2.39,20.82-3.4,31.26-.5,5.1,1.36,9.21,6.32,11.36s9.56,1.26,12.67-2.79C41.15,102.75,44.8,96.43,48.77,90.35ZM315,54.73h0a63.29,63.29,0,0,0,.12,8.49c.18,1.39,1.54,2.62,2.37,3.92.72-1.24,2-2.46,2.06-3.73.17-5.65.14-11.33-.12-17-.3-6.6-3.48-10.1-10.19-9.45-6.33.62-12.49,2.78-18.73-.22-.26-.12-.66.1-1,.07-3.74-.38-7.49,3.74-11.23,0-.67.73-1.91,1.45-1.92,2.19-.17,8.29-.23,16.58-.09,24.86,0,1.11,1.32,2.19,2,3.29.84-1.13,2.38-2.25,2.42-3.4.16-5.47-.11-11-.19-16.44-.06-3.76,4.33-7.7,8.82-7.32,3.79.31,6.55,2.26,6.5,6.72-.07,5.5-.17,11,.1,16.49.06,1.34,1.48,2.62,2.28,3.93.65-1.29,1.81-2.56,1.86-3.87.2-5.33,0-10.67.06-16,.09-4.17,4.37-7.76,8.91-7.19,4,.48,6.24,2.84,6,7.17C314.92,49.72,315,52.23,315,54.73ZM237.11,30l.89-1c-1.13-.76-2.2-2-3.4-2.18-4.43-.53-8.94-1.22-13.36-.89-10,.73-16.56,7.35-17.31,16.77-1.06,13.21,3.42,21.64,13.65,23.93,4.74,1.07,9.86.67,14.79.51,3.51-.12,5.78-1.81,5.29-6-.31-2.61.45-5.35.12-8-.22-1.78-1.47-3.44-2.26-5.16-.78,1.73-1.57,3.46-2.31,5.21a2.41,2.41,0,0,0,0,1c.3,10.32.27,10.35-10,9.7h-.5C213.84,63.2,209,58,208.13,48.45c-.85-10,2.94-16.77,11.41-18.22C225.24,29.25,231.24,30,237.11,30Zm31.54,36.2c0-5.46.05-11.53,0-17.6,0-4.05-.2-8.25-4.67-10.17a20.09,20.09,0,0,0-17.27.17c-.37.18-.36,1.15-.74,2.51,2-.1,3.55-.12,5.09-.27,1.81-.16,3.61-.63,5.41-.62,6.38.07,8.44,3,6.82,8.75-4.44.36-8.77.34-12.93,1.14-5.21,1-7.24,4.44-6.66,9.94.45,4.24,3.33,6.89,8.2,6.89C257.19,66.94,262.5,66.49,268.65,66.2Zm61.86-13c6.41,0,12.56.12,18.7-.1,1.27,0,3.28-1.08,3.61-2.1,1.36-4.21-2.11-11.27-6.31-13-5.57-2.27-11.32-2.34-16,1.72-5.24,4.53-5.19,10.69-3.91,17.06,1.22,6.1,5.11,9.24,10.83,10.16a36,36,0,0,0,9.94,0c1.49-.18,2.82-1.7,4.23-2.62-1.51-.26-3-.86-4.51-.74-8.5.68-16.19.42-16.58-10.39Zm-166.1,59.05c2.16-8,1.19-89.43-1-92.24-2.13,4.76-1.57,89.31,1,92.23Zm130-19.79c2.75,4.18,4.63,7.32,6.84,10.22a4.5,4.5,0,0,0,3.38,1.25c.49,0,1.26-1.79,1.28-2.78.1-3.82.06-7.66-.2-11.48-.07-1-1.16-1.87-1.78-2.8a12.65,12.65,0,0,0-1.46,3.22c-.31,2-.25,4.12-.37,6.6-4.74-2.53-4.29-9.85-11.17-9.87.4,6-1.23,11.77,1,17.06l1.85-.1c.22-3.37.41-6.73.67-11.33Zm72.75,3.46c.19-6-2.43-9-7.83-9.19s-8.9,3-9.13,8.25c-.22,4.82,3.27,9,7.68,9.16,6.26.25,9.12-2.29,9.32-8.23Zm-124,8.32c6.18,0,8.88-2.85,8.89-9.25,0-5.38-3.18-8.28-8.83-8.29-6.37,0-7.69,3.77-8.18,9.53-.35,4.66,3.42,8,8.16,8Zm80.86-14.52c-.21-.92-.42-1.83-.62-2.75-3,0-6-.48-8.89.11-4.45.91-6.81,6.18-5.61,11.31,1.12,4.77,5.62,7,12.14,5.76,5.23-1,2.31-5.27,2.85-8.13,0-.24-.3-.55-.73-1.28l-5.37.53c1.22,2.08,2.26,3.87,3.56,6.1-5.15.78-8.46,0-9.07-4.18-1.33-9.07,5.53-8,11.78-7.48Zm23.6-.24-.26-2.5c-3.34.16-7.06-.52-9.89.77-2.17,1-4.18,4.33-4.55,6.87-1,6.76,2.36,9.78,9.84,9.54,1.74,0,4.55-.77,4.94-1.87.69-2,.64-5-.49-6.55-.8-1.14-3.85-.69-6.31-1,1.82,2.6,3,4.29,4.66,6.63-6.64.44-9-.75-9.36-4.44-.93-8.93,5.87-7.45,11.46-7.46ZM270.22,86.8a6.49,6.49,0,0,0-.62,1.4,96.19,96.19,0,0,0-.15,9.9c.14,2,1.1,4,1.7,6l3.05-5.42c5.93-1.46,8.49-3.77,7.37-7.64C279.75,84.73,274.53,87.18,270.22,86.8Zm-48.83,6.71a18.2,18.2,0,0,0-.24-3.46,18.6,18.6,0,0,0-1.47-3.17c-.59,1.16-1.6,2.29-1.69,3.5a55.31,55.31,0,0,0,0,8.73c.1,1.25.93,2.44,1.74,4.43,2.74-8.22,2.74-8.22,8.61-6.82L230.5,103l1.51-.35c-.48-5.05,1.75-10.36-2.66-15.13-.29,1.9-.59,3.8-.9,5.86-1.71.22-3.34.5-5,.62A8.09,8.09,0,0,1,221.39,93.51Zm37.19,5.08c6.74-1.06,9.1-3.1,8.41-7.09-.73-4.21-4.34-5.53-11.43-4.18-1.64,8-.93,15.06,2.12,16.94Zm-44.3-9.21c.11-.67.21-1.33.32-2-2.65-.11-5.4-.68-7.91-.14-1.2.26-3,3.07-2.66,3.94.83,2,2.78,3.58,4.37,5.24.42.44,1.32.4,1.77.83a31.59,31.59,0,0,1,2.31,2.72c-1.17.69-2.3,1.85-3.53,2-1.65.15-3.37-.51-6.1-1,1.94,4.64,5.07,3.09,7.27,2.69,1.8-.32,3.38-1.85,5.06-2.84-1.31-2.1-2.49-4.3-4-6.26a30.28,30.28,0,0,0-3.89-3.62L213,89.67Zm73.3,6.4a55.85,55.85,0,0,0-.08-6.47c-.11-.87-1.14-1.62-1.75-2.42-.58.84-1.61,1.67-1.65,2.54-.17,4.16-.14,8.32,0,12.48,0,.73,1,1.44,1.52,2.15.65-.76,1.74-1.46,1.85-2.3A44.22,44.22,0,0,0,287.58,95.78Z"/><path class="cls-2" d="M48.77,90.35c-4,6.08-7.62,12.4-12,18.14-3.11,4.05-7.82,4.89-12.67,2.79S17.25,105,17.75,99.92c1-10.44,2.24-20.86,3.43-31.28.44-3.8,1.2-7.57,1.52-11.38.46-5.64,3.21-9.95,7-14a11,11,0,0,0,2.87-6.19c.29-3.85,1.94-5.43,5.62-5.34h5c9.39,0,9.39,0,10.49,10H68.51c.69-6.6,3.49-10.62,10.57-10.11C80,31.69,81,30,82,29.1c-1-1-2-2.88-3.12-3-4.64-.35-9.33,0-14-.25-4.16-.21-8-1.25-8.54-6.54.55-.23,1.23-.7,1.41-.56,6,4.94,13.18,2.48,19.86,2.92,3.76.24,7,1,8.33,5,1.64,5-1.2,8.44-7.42,9-3.32.32-6.13.83-5,5.71H88c.25-.31.59-.54.63-.81C89.76,31.7,89.76,31.7,99,31.7c1.83,0,3.67.06,5.5,0,3.8-.12,5.12,1.85,5.62,5.46a12.81,12.81,0,0,0,3.09,6.67A25.7,25.7,0,0,1,120.09,59c1.58,13.19,3.07,26.39,4.59,39.59.94,8.14-4.35,14.39-12,13.42-2.68-.34-5.49-2.26-7.53-4.21A37.4,37.4,0,0,1,99,99.43c-1.74-3-2.93-6.28-4.47-9.66,2-2,3.09-2.08,4.63.75a96.75,96.75,0,0,0,9.52,15.06c1.34,1.66,5.17,2.4,7.45,1.85,1.76-.42,4.17-3.56,4.08-5.38-.54-10.52-1.73-21-2.81-32.63-1.78,1.65-2.56,2.39-3.36,3.12-3.87,3.46-7.8,6.48-13.54,6.34A7.83,7.83,0,0,0,95.09,82c-4.82,7-13.28,7.06-18-.21-2.4-3.71-9.31-3.78-11.74-.14-5,7.54-13.24,7.51-18.35.07a6,6,0,0,0-3.65-2.48c-8.55-1.06-11.47-2.43-18.49-9.86-1.05,11.3-2.29,21.77-2.77,32.27-.09,2,2.4,5.35,4.4,6s6-.31,7.28-2c3.58-4.51,6.11-9.84,9.29-14.69.82-1.24,2.49-1.92,3.77-2.86ZM58.85,58.69a15.36,15.36,0,0,0-14.52-15.9c-8.69-.64-16.06,5-17.24,13.08C25.83,64.6,31,73,39,74.61c3.55.73,7.14,1.17,9.14-3.41a6.88,6.88,0,0,1,4.58-3.45C58.36,67,58.78,63.05,58.85,58.69Zm56.82,1c.06-6.81-3.3-12.85-9.1-15.4-6.06-2.66-12-2.35-17.35,2-4.93,4.06-6.7,9.35-5.68,15.57.45,2.74,1.51,4.77,4.79,5.54,2.21.51,4.88,2.11,5.91,4,2.27,4.19,5.52,4.19,9.22,3.4,6.39-1.35,12.16-8.61,12.21-15.12Zm-55-13.6c.83,5.7,2.46,10.91,2.07,16-.3,3.9-.46,6.61,2.05,10.12,3,4.17,6.91,3.35,9.6,2.33s6.42-5.36,5.94-7.32C78.5,59.71,79,53,83.23,46.08Zm-5.1,25c-3.13.26-5.52,2.12-5.46,6.18.06,3.83,2.4,5.64,6,5.76a6,6,0,0,0,6.24-5.75,3.84,3.84,0,0,0,0-.48c-.35-3.54-2.13-5.8-6.79-5.71Zm30.82,0c-4,.13-6.2,2.16-6.28,6.16S82.4,83,86,83s6-2,6-5.8c0-3.64-1.76-5.93-5.62-6.2Zm19-32.36.48-1.36c-1.24-.46-2.55-1.43-3.69-1.26-3,.46-6.85-1.78-9.78,2.62Zm-69-.47H49.21c-3-3-9.06-3.11-12.75,0Z"/><path class="cls-2" d="M315,54.73c0-2.5-.11-5,0-7.5.24-4.33-2.05-6.69-6-7.17-4.54-.57-8.82,3-8.91,7.19-.11,5.33.14,10.67-.06,16,0,1.31-1.21,2.58-1.86,3.87-.8-1.31-2.22-2.59-2.28-3.93-.27-5.49-.17-11-.1-16.49,0-4.46-2.71-6.41-6.5-6.72-4.49-.38-8.88,3.56-8.82,7.32.08,5.48.35,11,.19,16.44,0,1.15-1.58,2.27-2.42,3.4-.71-1.1-2-2.18-2-3.29-.14-8.28-.08-16.57.09-24.86,0-.74,1.25-1.46,1.92-2.19,3.74,3.77,7.49-.35,11.23,0,.33,0,.73-.19,1-.07,6.24,3,12.4.84,18.73.22,6.71-.65,9.89,2.85,10.19,9.45.26,5.65.29,11.33.12,17,0,1.27-1.34,2.49-2.06,3.73-.83-1.3-2.19-2.53-2.37-3.92a63.29,63.29,0,0,1-.12-8.49Z"/><path class="cls-2" d="M237.11,30c-5.87,0-11.87-.79-17.57.19-8.47,1.45-12.26,8.25-11.41,18.22C209,58,213.84,63.2,222.61,63.82h.5c10.31.65,10.34.62,10-9.7a2.41,2.41,0,0,1,0-1c.74-1.75,1.53-3.48,2.31-5.21.79,1.72,2,3.38,2.26,5.16.33,2.61-.43,5.35-.12,8,.49,4.21-1.78,5.9-5.29,6-4.93.16-10,.56-14.79-.51-10.23-2.29-14.71-10.72-13.65-23.93.75-9.42,7.29-16,17.31-16.77,4.42-.33,8.93.36,13.36.89,1.2.15,2.27,1.42,3.4,2.18Z"/><path class="cls-2" d="M268.65,66.2c-6.15.29-11.46.74-16.77.74-4.87,0-7.75-2.65-8.2-6.89-.58-5.5,1.45-8.95,6.66-9.94,4.16-.8,8.49-.78,12.93-1.14,1.62-5.76-.44-8.68-6.82-8.75-1.8,0-3.6.46-5.41.62-1.54.15-3.1.17-5.09.27.38-1.36.37-2.33.74-2.51A20.08,20.08,0,0,1,264,38.43c4.47,1.92,4.62,6.12,4.67,10.17C268.7,54.67,268.65,60.74,268.65,66.2Zm-3.26-13c-5.27,0-9.25-.4-13.07.2-1.58.25-3.66,2.5-4,4.13s1.21,5.2,2.07,5.24c4.06.21,8.45.22,12.14-1.2,1.61-.64,1.78-4.91,2.86-8.39Z"/><path class="cls-2" d="M330.51,53.19c.39,10.79,8.08,11.07,16.57,10.41,1.47-.12,3,.48,4.51.74-1.41.92-2.74,2.44-4.23,2.62a36,36,0,0,1-9.94,0c-5.72-.92-9.61-4.06-10.83-10.16-1.28-6.37-1.33-12.53,3.91-17.06,4.69-4.06,10.44-4,16-1.72,4.2,1.72,7.67,8.78,6.31,13-.33,1-2.34,2.06-3.61,2.1C343.07,53.31,336.92,53.19,330.51,53.19Zm.23-3.73h17.68c-.52-6.46-3-9.16-8.29-9.27-5.87-.13-8.62,2.52-9.39,9.27Z"/><path class="cls-2" d="M164.41,112.24c-2.57-2.92-3.13-87.47-1-92.24C165.6,22.81,166.57,104.22,164.41,112.24Z"/><path class="cls-2" d="M294.45,92.45c-.26,4.6-.46,8-.65,11.32l-1.85.1c-2.21-5.29-.58-11-1-17.06,6.88,0,6.43,7.34,11.17,9.87.12-2.48.06-4.57.37-6.6A12.8,12.8,0,0,1,304,86.86c.62.93,1.71,1.83,1.78,2.8.26,3.82.3,7.66.2,11.48,0,1-.79,2.76-1.28,2.78a4.5,4.5,0,0,1-3.38-1.25C299.08,99.77,297.2,96.63,294.45,92.45Z"/><path class="cls-2" d="M367.2,95.91c-.19,5.94-3.06,8.48-9.28,8.22-4.41-.18-7.9-4.34-7.68-9.16.23-5.2,3.76-8.4,9.13-8.25S367.39,89.94,367.2,95.91ZM354,95.66c-.34,3.6,1.28,6,4.88,6.06,3.81.11,5-2.72,5.06-6s-.94-6.18-4.74-6.37C355,89.12,354,92.17,354,95.66Z"/><path class="cls-2" d="M243.25,104.23c-4.74,0-8.51-3.34-8.12-8,.49-5.76,1.81-9.54,8.18-9.53,5.65,0,8.84,2.91,8.83,8.29C252.13,101.38,249.43,104.19,243.25,104.23Zm-4.89-11.44c.61,5.14.72,9,5.69,8.89,4-.08,4.73-3.08,4.71-6.25,0-3.55-1.5-6.55-5.47-6C241.28,89.7,239.54,91.94,238.36,92.79Z"/><path class="cls-2" d="M324.11,89.71c-6.25-.54-13.09-1.59-11.74,7.47.61,4.14,3.92,5,9.07,4.18l-3.56-6.1,5.37-.53c.43.73.78,1,.73,1.28-.54,2.86,2.38,7.11-2.85,8.13-6.52,1.27-11-1-12.14-5.76-1.2-5.13,1.16-10.4,5.61-11.31,2.85-.59,5.92-.11,8.89-.11C323.69,87.88,323.9,88.79,324.11,89.71Z"/><path class="cls-2" d="M347.71,89.47c-5.59,0-12.39-1.52-11.42,7.44.4,3.69,2.72,4.88,9.36,4.44-1.64-2.34-2.84-4-4.66-6.63,2.46.32,5.51-.13,6.31,1,1.13,1.59,1.18,4.58.49,6.55-.39,1.1-3.2,1.82-4.94,1.87-7.48.24-10.81-2.78-9.84-9.54.37-2.54,2.38-5.89,4.55-6.87,2.83-1.29,6.55-.61,9.89-.77Z"/><path class="cls-2" d="M270.22,86.8c4.31.38,9.53-2.07,11.35,4.22,1.12,3.87-1.44,6.18-7.37,7.64l-3.05,5.42c-.6-2-1.56-4-1.7-6a96.19,96.19,0,0,1,.15-9.9A6.34,6.34,0,0,1,270.22,86.8Zm3.12,8.66,1.37.79c1.08-1.54,2.55-3,3-4.69.15-.54-2.35-1.82-4.4-3.32Z"/><path class="cls-2" d="M221.39,93.51a8.19,8.19,0,0,0,2.13.52c1.63-.12,3.26-.4,5-.62.31-2.06.61-4,.9-5.86,4.41,4.77,2.18,10.08,2.66,15.13l-1.51.35-2.16-6.31c-5.87-1.4-5.87-1.4-8.61,6.82-.81-2-1.64-3.18-1.74-4.43a55.31,55.31,0,0,1,0-8.73c.09-1.21,1.1-2.34,1.69-3.5a18.6,18.6,0,0,1,1.47,3.17A18.21,18.21,0,0,1,221.39,93.51Z"/><path class="cls-2" d="M258.58,98.59l-.9,5.67c-3.05-1.88-3.76-8.93-2.12-16.94,7.09-1.35,10.7,0,11.43,4.18C267.68,95.49,265.32,97.53,258.58,98.59Zm-.24-3.33,1.47,1.11,3.91-4.47-5.38-3.72Z"/><path class="cls-2" d="M214.28,89.38l-1.33.29-5.66,1.23a30.28,30.28,0,0,1,3.89,3.62c1.51,2,2.69,4.16,4,6.26-1.68,1-3.26,2.52-5.06,2.84-2.2.4-5.33,1.95-7.27-2.69,2.73.5,4.45,1.16,6.1,1,1.23-.11,2.36-1.27,3.53-2a31.59,31.59,0,0,0-2.31-2.72c-.45-.43-1.35-.39-1.77-.83-1.59-1.66-3.54-3.23-4.37-5.24-.36-.87,1.46-3.68,2.66-3.94,2.51-.54,5.26,0,7.91.14C214.49,88.05,214.39,88.71,214.28,89.38Z"/><path class="cls-2" d="M287.58,95.78a44.51,44.51,0,0,1-.1,6c-.11.84-1.2,1.54-1.85,2.3-.53-.71-1.49-1.42-1.52-2.15-.15-4.16-.18-8.32,0-12.48,0-.87,1.07-1.7,1.65-2.54.61.8,1.64,1.55,1.75,2.42A55.53,55.53,0,0,1,287.58,95.78Z"/><path class="cls-1" d="M58.85,58.69c-.07,4.36-.49,8.26-6.17,9.06A6.88,6.88,0,0,0,48.1,71.2c-2,4.58-5.59,4.14-9.14,3.41C31,73,25.83,64.6,27.09,55.87c1.18-8.13,8.55-13.72,17.24-13.08A15.36,15.36,0,0,1,58.85,58.69ZM46.23,61.94l5.09-3.42L46,56.06l-3-5.94L39.76,56l-5.51,2.57,6.33,4L41.12,67C46.52,68.17,44.27,63.57,46.23,61.94Z"/><path class="cls-1" d="M115.67,59.68c0,6.51-5.82,13.77-12.21,15.14-3.7.79-6.95.79-9.22-3.4-1-1.89-3.7-3.49-5.91-4-3.28-.77-4.34-2.8-4.79-5.54-1-6.22.75-11.51,5.68-15.57,5.33-4.38,11.29-4.69,17.35-2C112.37,46.83,115.73,52.87,115.67,59.68Zm-10.8,5.65c-2.62-1.71-4.28-3.56-5.23-3.25-1.51.51-2.55,2.45-3.79,3.78,1.21,1.08,2.44,3,3.62,3C100.9,68.85,102.29,67.13,104.87,65.33Zm.28-13.25c-3-1.73-4.45-3.3-5.86-3.23-1.21.07-3.43,2.25-3.25,3,.33,1.49,2,3.49,3.31,3.7S102.21,54,105.15,52.08Zm.8,12.15c1.85-2.69,3.56-4.09,3.53-5.45,0-1.2-2-2.36-3.08-3.53-1.25,1.24-3.07,2.3-3.55,3.79-.3,1,1.42,2.52,3.15,5.19Zm-14-1.3,2-.1c.76-1.51,2.23-3.1,2.07-4.5-.14-1.15-2.34-3-3.38-2.87-1.31.18-3.24,2.06-3.3,3.29S91,61.53,92,62.93Z"/><path class="cls-1" d="M60.66,46.08H83.23C79,53,78.5,59.71,80.32,67.18c.48,2-3.28,6.32-5.94,7.32s-6.63,1.84-9.6-2.33c-2.51-3.51-2.35-6.22-2.05-10.12C63.12,57,61.49,51.78,60.66,46.08Z"/><path class="cls-1" d="M55.56,71.09C60.22,71,62,73.26,62.38,76.8A6,6,0,0,1,56.59,83a3.38,3.38,0,0,1-.45,0c-3.64-.12-6-1.93-6-5.76C50,73.21,52.43,71.35,55.56,71.09Z"/><path class="cls-1" d="M86.38,71c3.86.23,5.63,2.52,5.62,6.16C92,81,89.73,83,86,83s-6-1.87-5.93-5.8S82.37,71.17,86.38,71Z"/><path class="cls-1" d="M105.43,38.68h-13c2.93-4.4,6.77-2.16,9.78-2.62,1.14-.17,2.45.8,3.69,1.26Z"/><path class="cls-1" d="M36.46,38.21c3.69-3.06,9.71-3,12.75,0Z"/><path class="cls-1" d="M265.39,53.18c-1.08,3.48-1.25,7.75-2.84,8.37-3.69,1.42-8.08,1.41-12.14,1.2-.86,0-2.38-3.6-2.07-5.24s2.4-3.88,4-4.13C256.14,52.78,260.12,53.18,265.39,53.18Z"/><path class="cls-1" d="M330.74,49.46c.77-6.75,3.52-9.4,9.39-9.27,5.28.11,7.77,2.81,8.29,9.27Z"/><path class="cls-1" d="M354,95.66c.08-3.49,1-6.54,5.2-6.34,3.8.19,4.8,3.09,4.74,6.37s-1.25,6.14-5.06,6C355.24,101.62,353.62,99.26,354,95.66Z"/><path class="cls-1" d="M238.36,92.79c1.18-.85,2.92-3.09,4.93-3.36,4-.55,5.45,2.45,5.47,6,0,3.17-.7,6.17-4.71,6.25C239.08,101.79,239,97.93,238.36,92.79Z"/><path class="cls-1" d="M273.34,95.46V88.24c2.05,1.5,4.55,2.78,4.4,3.32-.48,1.71-1.95,3.15-3,4.69Z"/><path class="cls-1" d="M258.34,95.26V88.18l5.38,3.72-3.91,4.47Z"/><path class="cls-2" d="M46.23,61.94c-2,1.63.29,6.23-5.11,5.07l-.54-4.47-6.33-4L39.76,56l3.31-5.86,3,5.94,5.28,2.46Z"/><path class="cls-2" d="M104.87,65.33c-2.58,1.8-4,3.52-5.4,3.55-1.18,0-2.41-1.94-3.62-3,1.24-1.33,2.28-3.27,3.79-3.78C100.59,61.77,102.25,63.62,104.87,65.33Z"/><path class="cls-2" d="M105.15,52.08c-2.94,1.9-4.53,3.72-5.8,3.52s-3-2.21-3.31-3.7c-.18-.8,2-3,3.25-3C100.7,48.78,102.19,50.35,105.15,52.08Z"/><path class="cls-2" d="M106,64.23c-1.68-2.67-3.4-4.26-3.1-5.19.48-1.49,2.3-2.55,3.55-3.79,1.1,1.17,3.06,2.33,3.08,3.53C109.51,60.14,107.8,61.54,106,64.23Z"/><path class="cls-2" d="M92,62.93c-1-1.4-2.72-2.83-2.66-4.18s2-3.11,3.3-3.29c1-.15,3.24,1.72,3.38,2.87.16,1.4-1.31,3-2.07,4.5Z"/></svg>