<svg id="圖層_1" data-name="圖層 1" xmlns="http://www.w3.org/2000/svg" viewBox="0 0 101 101"><defs><style>.cls-1{fill:#fefefe;}.cls-2{fill:#fdfefd;}.cls-3{fill:#fcfdfc;}.cls-4{fill:#fafdfa;}.cls-5{fill:#f8fbf8;}.cls-6{fill:#20afea;}</style></defs><path class="cls-1" d="M190.93,411.5c0,15.81-.06,31.63.07,47.44,0,2.5-.57,3.07-3.06,3.06q-47.44-.15-94.88,0c-2.5,0-3.07-.56-3.06-3.06q.15-47.44,0-94.88c0-2.5.56-3.07,3.06-3.06q47.44.15,94.88,0c2.49,0,3.08.56,3.06,3.06C190.87,379.87,190.93,395.69,190.93,411.5Z" transform="translate(-90 -361)"/><path d="M180,414.67c-4.5,6.35-9.79,9.35-16.56,9.28-1.8,0-2,1.25-2.7,2.33-4,6.15-11,6.08-14.94-.08-2-3.21-8.5-3.31-10.52-.16-4.15,6.45-10.94,6.5-15.14-.05a3.54,3.54,0,0,0-2.89-2.06c-8.8-1.21-9.8-1.79-16.36-8.87-1,9.77-2.06,18.9-2.86,28.05a5.22,5.22,0,0,0,3.7,5.85,6.9,6.9,0,0,0,7.62-2.33c3.19-3.69,5.3-8,7.53-12.3.5-.95.77-2.54,2.38-1.77s.67,2,.22,3a47.3,47.3,0,0,1-7.08,11.95c-3.2,3.73-7,5.79-11.87,3.93-5.14-2-5.73-6.65-5.27-11.25,1-9.91,2.57-19.78,3.46-29.7.64-7,2-13.5,8.18-17.87,1.13-.79,1.08-2,.95-3.17-.51-4.63,1.94-5.82,6-5.46a39.92,39.92,0,0,0,6,0c3.53-.2,5.45,1.14,5,4.91-.35,2.8.82,4,3.64,3.79a35.93,35.93,0,0,1,5.49,0c3.09.26,5.17,0,5.41-4.09.17-3.13,3-4.56,6.18-4.59,2.18,0,4.79.15,4.56-3-.19-2.82-2.68-2.4-4.64-2.42-3.33,0-6.65,0-10,0a9.54,9.54,0,0,1-5.26-1.21c-1.56-1-2.85-2.51-1.79-3.95s2,.41,3,1.17c2.16,1.63,4.81.8,7.27.92,3.14.15,6.31.07,9.45.3s4.74,2.25,4.83,5.3c.09,3.32-1.73,5.27-5,5.81-1.3.22-2.71,0-4,.34-1.65.47-2.08,1.92-2.11,3.55,0,2.08,1.41,1.87,2.73,1.88,2.16,0,4.34-.14,6.49,0,3.37.28,5.52-.4,5-4.51-.4-3,1.33-4.22,4.17-4.18,2.5,0,5,.15,7.49,0,3.83-.29,5.73,1.24,5.26,5.16-.24,2.1.77,3.3,2.29,4.57a17.67,17.67,0,0,1,6.37,12c1.27,11.23,2.7,22.44,4,33.67.92,8.23-2.63,12.88-9.37,12.65-3.52-.12-5.79-2.31-7.85-4.72-2.94-3.45-4.76-7.59-6.7-11.63-.52-1.09-1.84-2.44.24-3.24,1.68-.65,1.79,1,2.24,2A61.15,61.15,0,0,0,171.1,446c2.2,2.82,5,3.91,8.32,2.74s3.85-4,3.57-6.94C182.15,433.09,181.09,424.4,180,414.67Z" transform="translate(-90 -361)"/><path class="cls-2" d="M130.34,407.24c-.18,3.6-.34,7-5.34,7.29a5,5,0,0,0-4.09,3.35c-1.26,3.69-4,3.37-6.83,2.94-6.92-1.06-12.61-8.29-11.92-15a14.21,14.21,0,0,1,15.36-13A14,14,0,0,1,130.34,407.24Z" transform="translate(-90 -361)"/><path class="cls-2" d="M164.77,392.69a14.45,14.45,0,0,1,14.13,14c.16,7.35-6.28,14-13.77,14.31-.74,0-13.68-8.87-13.93-9.58C148.07,402.49,155.25,392.58,164.77,392.69Z" transform="translate(-90 -361)"/><path class="cls-3" d="M151.38,395.78c-3.46,5.61-4.47,11.05-2.68,17.3.92,3.2-2.39,6.58-4.78,7.51s-6.51,2.14-9.07-2c-1.79-2.88-3.06-5.11-2-8.74,1.47-4.85-.4-9.44-3.33-14.05Z" transform="translate(-90 -361)"/><path class="cls-4" d="M127.86,428.11c-3.56-.31-5.71-2.3-5.71-5.71a5.18,5.18,0,0,1,5.33-5.45c3.5-.12,5.77,1.88,5.84,5.37S131.36,427.79,127.86,428.11Z" transform="translate(-90 -361)"/><path class="cls-4" d="M153.61,428.09c-3.83-.12-5.88-2.19-5.94-5.57s2.12-5.58,5.64-5.57a5.18,5.18,0,0,1,5.52,5.26C159,425.66,156.84,427.63,153.61,428.09Z" transform="translate(-90 -361)"/><path class="cls-5" d="M116.21,389.87c-1.32-1.19-5,2.24-5-1.15s3.91-.91,5.94-1.66a8.68,8.68,0,0,1,2.45,0c1.4-.06,2.63,0,2.48,2s-1.47,1.14-2.46,1.08Z" transform="translate(-90 -361)"/><path class="cls-5" d="M164,390c-1.35-1-4.63,1.94-4.77-1.1-.17-3.65,3.47-1.15,5.29-1.82a3.72,3.72,0,0,1,2,0c1.34.31,3.8-1.09,3.59,1.77s-2.55.6-3.81,1.12A7.11,7.11,0,0,1,164,390Z" transform="translate(-90 -361)"/><path class="cls-6" d="M123.28,407.32a1.07,1.07,0,0,1-1.27.8c-3.18-.39-4.71.76-4.13,4.12.15.86,0,1.62-1.19,1.71-1.36.11-1.84-.65-1.7-1.79.34-2.85-.4-4.52-3.71-4-1,.15-2,0-2.1-1.45-.09-1.58,1-1.54,2-1.39,3.12.48,4.27-.82,3.84-3.86a1.3,1.3,0,0,1,1.36-1.63c.72,0,1.63.22,1.51.86-.7,3.76.92,5.09,4.51,4.8C123.07,405.43,123.35,406.25,123.28,407.32Z" transform="translate(-90 -361)"/><path class="cls-6" d="M159.09,403.94a2.65,2.65,0,0,1,2.78,2.8,2.69,2.69,0,0,1-3.07,3,2.62,2.62,0,0,1-2.75-2.82C156.05,404.93,157.15,404,159.09,403.94Z" transform="translate(-90 -361)"/><path class="cls-6" d="M167.47,401.16c-.18,1.66-.87,2.81-2.74,2.83a2.5,2.5,0,0,1-2.86-2.63c-.09-2,.92-3.13,2.92-3.09C166.58,398.3,167.38,399.45,167.47,401.16Z" transform="translate(-90 -361)"/><path class="cls-6" d="M173.13,407.51c.06,1-.88,2.05-2.57,2.17a2.58,2.58,0,0,1-3-3,2.48,2.48,0,0,1,2.78-2.71C172.13,404,173,404.9,173.13,407.51Z" transform="translate(-90 -361)"/><path class="cls-6" d="M164.8,415.22c-1.74.06-2.86-.61-2.93-2.53s.68-2.84,2.56-2.92,2.89.73,3,2.54S166.72,415.18,164.8,415.22Z" transform="translate(-90 -361)"/><path class="cls-6" d="M139,402.38c.09.94-.18,1.6-1.25,1.62-.89,0-1.58-.23-1.66-1.3s.3-1.53,1.31-1.62S139,401.38,139,402.38Z" transform="translate(-90 -361)"/><path class="cls-6" d="M144.86,402.34c0,1.22-.56,1.63-1.48,1.67s-1.47-.49-1.45-1.47.45-1.52,1.47-1.48S144.94,401.48,144.86,402.34Z" transform="translate(-90 -361)"/><path class="cls-6" d="M141.89,417.23c-.11.86-.93.85-1.75.8a1.07,1.07,0,0,1-1-1.31c0-.93.5-1.49,1.53-1.42S141.92,416.06,141.89,417.23Z" transform="translate(-90 -361)"/></svg>