<?xml version="1.0" encoding="utf-8"?>
<!-- Generator: Adobe Illustrator 23.1.0, SVG Export Plug-In . SVG Version: 6.00 Build 0)  -->
<svg version="1.1" id="圖層_1" xmlns="http://www.w3.org/2000/svg" xmlns:xlink="http://www.w3.org/1999/xlink" x="0px" y="0px"
	 viewBox="0 0 96 96" style="enable-background:new 0 0 96 96;" xml:space="preserve">
<title>magnifierIcon</title>
<path d="M14.6,75.4L1.3,88.7c-1.7,1.7-1.7,4.4,0,6s4.4,1.7,6,0l0,0l13.4-13.3"/>
<path d="M26.6,63.3L13.3,76.7c-1.8,1.5-2.2,4.2-0.7,6s4.2,2.2,6,0.7c0.3-0.2,0.5-0.4,0.7-0.7l0,0l13.3-13.3"/>
<path d="M78.7,8.2C60.1-5.6,33.9-1.6,20.2,17C14.8,24.2,12,33,12,42c0,9,3,17.8,8.5,25l8.5,8.5c18.6,13.7,44.8,9.8,58.6-8.8
	C101.3,48.1,97.4,21.9,78.7,8.2z M86.9,42.6c0,18.3-14.8,33.1-33.1,33.1c-18.3,0-33.1-14.8-33.1-33.1c0-18.3,14.8-33.1,33.1-33.1
	C72.1,9.5,86.9,24.3,86.9,42.6C86.9,42.6,86.9,42.6,86.9,42.6z"/>
</svg>
