<?xml version="1.0" encoding="utf-8"?>
<!-- Generator: Adobe Illustrator 24.1.2, SVG Export Plug-In . SVG Version: 6.00 Build 0)  -->
<svg version="1.1" id="圖層_1" xmlns="http://www.w3.org/2000/svg" xmlns:xlink="http://www.w3.org/1999/xlink" x="0px" y="0px"
	 viewBox="0 0 512 512" style="enable-background:new 0 0 512 512;" xml:space="preserve">
<style type="text/css">
	.st0{fill:#FFCC99;}
</style>
<g>
	<path class="st0" d="M0.1,394c2.2-3.5,2-7.5,2.8-11.3c10.5-45.2,51.1-79.3,97.4-81.6c3.6-0.2,7.3,0.4,10.7,1.7
		c47,17.3,94,34.6,141,51.9c2.6,1,5.5,1,8.1,0c46.4-17.1,92.8-34,139.1-51.4c10.1-3.8,19.7-1.9,29.4,0.3
		c43.5,9.8,74.7,43.4,82.3,87.9c0.1,0.9-0.3,2.1,1.1,2.4c0,38.1,0,76.3,0.1,114.5c0,3-0.6,3.6-3.6,3.6c-168.3-0.1-336.6-0.1-504.8,0
		c-3,0-3.6-0.6-3.6-3.6C0.1,470.3,0.1,432.1,0.1,394z M256.1,464c67.8,0,135.6,0,203.4,0.1c3.7,0,4.7-0.8,4.6-4.6
		c-0.2-17.5,0-35-0.1-52.5c-0.2-25.8-17.2-48.5-42-55.7c-4.9-1.6-10.2-1.4-15,0.4c-48.8,18.2-97.8,36-146.7,54.1
		c-2.8,1.1-5.8,1.1-8.6-0.1c-49.2-18.2-98.4-36.3-147.6-54.4c-3.6-1.4-7.5-1.6-11.2-0.7c-26.7,6.6-44.8,29.5-44.8,57
		c0,16.6,0.2,33.3-0.1,50c-0.1,5,0.9,6.5,6.3,6.5C121.5,463.9,188.8,463.9,256.1,464L256.1,464z"/>
	<path class="st0" d="M271,0.1c7.4,1.5,14.8,2.7,22.1,4.5c80.6,20.2,129.6,102,109.4,182.6c-10.9,43.6-40.8,80.1-81.5,99.4
		c-80.9,38.6-178.4-2.9-206.9-87.9c-28-83.5,20.7-172.5,106.4-194.4c6.5-1.6,13.3-1.6,19.6-4.3H271z M256.7,256.6
		c58,0.1,105.9-47.6,106-105.7c0.1-59-47.6-106.3-107.4-106.2c-57,0.1-104.5,47.8-104.5,104.8C150.8,209,197.7,256.5,256.7,256.6z"
		/>
</g>
</svg>
