<svg id="圖層_1" data-name="圖層 1" xmlns="http://www.w3.org/2000/svg" viewBox="0 0 26 24"><defs><style>.cls-1{fill:#061a2e;}</style></defs><path class="cls-1" d="M15,16.55A6.7,6.7,0,0,1,8.4,9.78,6.7,6.7,0,0,1,15,3a6.7,6.7,0,0,1,6.6,6.78A6.7,6.7,0,0,1,15,16.55Zm0-11.8a5,5,0,0,0-4.89,5,4.89,4.89,0,1,0,9.78,0A5,5,0,0,0,15,4.75Z" transform="translate(-2 -3)"/><path class="cls-1" d="M27.15,27H2.85a.83.83,0,0,1-.63-.3A.84.84,0,0,1,2,26c.7-6,3.35-9.1,8.1-9.42a.86.86,0,0,1,.56.17,7,7,0,0,0,8.65,0,.88.88,0,0,1,.57-.17c4.74.31,7.4,3.4,8.1,9.42a.84.84,0,0,1-.21.68A.83.83,0,0,1,27.15,27ZM3.84,25.25H26.16c-.72-4.39-2.63-6.54-6.09-6.87a8.67,8.67,0,0,1-10.15,0C6.47,18.71,4.56,20.86,3.84,25.25Z" transform="translate(-2 -3)"/></svg>