<?xml version="1.0" encoding="iso-8859-1"?>
<!-- Generator: Adobe Illustrator 19.0.0, SVG Export Plug-In . SVG Version: 6.00 Build 0)  -->
<svg version="1.1" id="Capa_1" xmlns="http://www.w3.org/2000/svg" xmlns:xlink="http://www.w3.org/1999/xlink" x="0px" y="0px"
	 viewBox="0 0 512 512" style="enable-background:new 0 0 512 512;" xml:space="preserve">
<g>
	<g>
		<path d="M308.136,193.563c-4.817-4.818-8.654-3.756-10.614-1.796l-8.001,8.001l12.41,12.41l8.409-8.409
			C312.299,201.81,312.79,198.217,308.136,193.563z"/>
	</g>
</g>
<g>
	<g>
		<path d="M466.089,139.805c-25.928,25.928-67.966,25.928-93.895,0c-25.929-25.928-25.928-67.967,0-93.895L326.284,0L0,326.284
			l45.911,45.911c25.928-25.928,67.967-25.928,93.895,0c25.928,25.928,25.928,67.967,0,93.895l45.91,45.91L512,185.716
			L466.089,139.805z M236.615,340.85l-79.521-36.413l16.818-16.818l49.313,26.616l-26.779-49.15l16.737-16.737l36.657,79.276
			L236.615,340.85z M283.644,293.821l-57.967-57.967l15.921-15.921l57.967,57.967L283.644,293.821z M317.688,259.776l-57.967-57.967
			l24.983-24.983c11.349-11.349,29.718-9.308,39.597,0.571c10.287,10.287,12.41,27.76,0.98,39.189l-9.471,9.471l17.798,17.798
			L317.688,259.776z"/>
	</g>
</g>
<g>
</g>
<g>
</g>
<g>
</g>
<g>
</g>
<g>
</g>
<g>
</g>
<g>
</g>
<g>
</g>
<g>
</g>
<g>
</g>
<g>
</g>
<g>
</g>
<g>
</g>
<g>
</g>
<g>
</g>
</svg>
