<?xml version="1.0" encoding="utf-8"?>
<!-- Generator: Adobe Illustrator 24.1.2, SVG Export Plug-In . SVG Version: 6.00 Build 0)  -->
<svg version="1.1" id="圖層_1" xmlns="http://www.w3.org/2000/svg" xmlns:xlink="http://www.w3.org/1999/xlink" x="0px" y="0px"
	 viewBox="0 0 448 510" style="enable-background:new 0 0 448 510;" xml:space="preserve">
<style type="text/css">
	.st0{fill:#7D674C;}
	.st1{fill:#FDFE97;}
	.st2{fill:#FBE35A;}
	.st3{fill:#FDFD6D;}
	.st4{fill:#FCED61;}
	.st5{fill:#F5F5F5;}
</style>
<g>
	<path class="st0" d="M111.6,127.2c10.8-0.2,21.9,0.4,32.1-3.6c7.4-2.9,14.7-6,22.5-7.6c20.2-4,40.1-1.8,59.7,3.4
		c7.9,2.1,15.6,4.6,23.5,6.8c5.4,1.5,9.4,5.6,14.1,8.3c6.7,3.8,13.3,7.7,19.6,12.2c12.7,9.1,22,20.4,27,35.4
		c2.2,6.5,3.7,13.2,5.7,19.8c1.6-0.8,1.9-1.8,2.3-2.7c6.6-18.7,15.1-36.6,23.4-54.5c1.2-2.7,3.2-5,4.8-7.5c1-1.5,2.5-1.9,4.4-1.6
		c4.7,0.8,8.8,2.3,12.5,5.5c8.7,7.5,18.1,14,26.3,22.2c10.9,10.9,19.9,23.1,27.8,36.3c12.4,20.8,23.3,42.2,31.5,65
		c2.1,5.7,1.5,11.1-1.5,16.3c-10,17.1-21,33.6-35,47.6c-10.6,10.7-22.8,19.8-34.3,29.7c-7.8,6.7-15.5,13.6-23.3,20.4
		c-2,1.8-2.3,3.7-1.2,6.2c2.8,6.2,5.3,12.5,8,18.7c1.6,3.5,0.9,5.7-2.8,7.5c-6.4,3.1-12.5,7-18.9,10.2c-4.2,2.1-4.7,4.6-2.1,8.3
		c3.3,4.7,2.7,8.8-1.6,12.8c-7.5,6.9-16.4,11.3-25.8,14.7c-5.2,1.9-5.3,1.6-1.7,5.6c5.8,6.5,4.4,18.3-3.4,26.2
		c-6.5,6.6-14.6,10.6-23.3,13c-10.6,2.8-21.1,6-32,7.6c-17.4,2.4-34.9,1-52.3,1.9c-18.4,0.9-36.4-2.8-54.6-4.5
		c-13.9-1.3-27.8-3-40.7-9c-5-2.3-10.5-4.1-10.2-11.2c-8-7.9-1.3-14.1,2.6-20.4c1.3-2.2,1.6-4.2,1.1-6.6
		c-2.3-10.9-3.7-21.8,0.2-32.8c1.2-3.3,2.1-6.6,4.4-9.4c5-6.3,5.6-14.1,6.9-21.6c0.3-1.9-0.4-3.6-1.6-5.1c-1.7-2-3.3-4.2-5.2-6.1
		c-10.9-10.8-13.9-23.8-11.2-38.5c1.2-6.4,1.8-12.9,4.7-18.8c1.6-3.3,0.1-5.1-2.5-7c-10.1-7.4-18.9-16.2-26.1-26.5
		c-2-2.8-3.2-5.8-4.4-8.9c-2.1-5.7-3.3-6.5-8.8-3.7c-6.5,3.4-13.3,6.1-20.3,8.2c-8.5,2.5-17.1,4.4-26.1,3.5
		c-4.1-0.4-5.5-2.1-3.9-6.2c4.1-10.7,10.1-20.4,17.4-29.3c16.8-20.6,33.2-41.6,51.7-60.8c3.9-4,6.3-8.9,8.7-13.8
		c1.6-3.2,1.2-5.7-3.3-6.2c-1.8-0.2-4.9,0.1-5.3-1.8c-0.5-2.3,2.1-3.9,3.8-5.4c6.4-5.4,13.4-9.8,20.5-14.2c1-0.6,2.1-1.1,3-1.8
		c4.2-3.3,4.2-5-0.3-7.8c-4-2.5-7.4-5.6-10.2-9.4c-1.4-1.9-2.1-4.1-3-6.2c5-2.8,8.7,0.7,10.3,4c3.9,8,10.5,13.2,16.6,19.1
		c-7.6,3.6-15.6,6.2-22.1,11.9c-1.7,0.7-3.4,1.3-5,2.1c-2.3,1.2-5.6,2.4-5.3,5.1c0.2,1.5,3.8,1.7,6.1,1.7c0.7,0,1.3,0.1,2,0.1
		c-6,13.9-9.3,28.5-11,43.5c-1.5,10.1-0.7,20.2-0.5,30.3c0,1.8,0.3,3.7-0.9,5.2c-2.9,3.8-5.2,8.1-8,11.9c-3.9,5.4-4,11-2.6,16.6
		c3.4,13.6,13.1,23.3,23.2,31.9c8.9,7.7,9.6,6.9,18.5-1.2c3.8-3.5,12.3-3.9,15.1,0c3,4.4,5.8,8.6,11.1,10.5c0.6,0.2,1.2,1.2,1.4,2
		c2.1,8.2,3,16.4,1.6,24.9c-2.2-0.9-2.9-3.1-4.6-4.5c3.2-5,1.3-10.4,0.9-15.7c-0.3-3.2-1.6-6.2-5.6-6.3c-2.1,0-3-1.8-4.2-3.1
		c0-0.5,0.1-1.1-0.1-1.5c-2.7-3.6-8.5-1-10.9-5.4c-0.7,0.5-1.3,0.9-2,1.4c-4.7,3-6.9,7.7-9.1,12.5c-0.2,0.2-0.3,0.4-0.2,0.7l-0.1,0
		c-6,8.9-6.7,19.2-7.4,29.4c-0.3,3.6,0,7.4,2.5,10.4c2,2.4,3.2,5,4.4,7.8c0.5,1.2,0.4,5.1,4,3.6l0,0c1.1,0.2,1.7,1,2,2
		c-0.6-0.2-1.1-0.3-1.5,0.3c0.5,0.2,1,0.4,1.5,0.7c-0.1,1.4,0.6,2.1,2,2c0.2,1,0.5,1.6,1.9,1.5c2.6-0.2,6.1,2.3,5.4,3.3
		c-2.1,3.4-0.1,7-1.5,10.1c-1.1,1.5-0.8,3.3-0.7,5c-0.1,0.5-0.1,1-0.2,1.5c-1.6,6.3-4.5,12-9.1,16.6c-2.3-0.2-1.6,1.5-1.8,2.7
		c-1.4,1.8-1.9,3.9-2.1,6.1c-0.1,0.4-0.3,0.7-0.4,1.1c-0.8,8.1,0.1,16.1,1.5,24.1c0.5,0.9-0.4,2.3,1.1,2.8c0.1,0.4,0.2,0.8,0.3,1.2
		c2.7,3.9,3.3,7.2-1.7,10.2c-2.6,1.6-5,3.9-6.7,6.6c-1.3,2.1-1.1,4.7,1.1,4.8c3.5,0.1,7.1-1.5,9.2,2.8c3.3-1.8,5.4-0.1,8.6,1.5
		c8.3,3.9,17.3,0.9,25.9-1c3.9-0.8,7.6-1.7,11.6-1c4.8,0.8,9.6,1.4,14.5,1.3c7.3-0.1,14.5-0.3,21.9,0.6c7.7,0.9,16.2,5.1,23.3-2.2
		c0.2-0.2,0.9,0.2,1.4,0.3c0.2,2.1-1.7,3.2-2.1,5c-0.3,1.7-0.8,3.4,1.2,4.3c1.7,0.7,3.3,1.3,4.4-1.3c0.6-1.5,2.6-2.4,4-3.6
		c1-0.9,2.2-1.8,3.4-0.6c1,1,0.6,2.4-0.2,3.2c-2.9,3-0.8,5.3,1.6,6.2c2.5,1,5.1-0.5,5.7-3.6c0.3-1.8,1.2-3.1,2.5-4.1
		c0.9-0.7,1.9-1.8,3.1-0.9c1.1,0.8,0.2,1.8-0.2,2.7c-1.3,2.7-0.5,3.3,2.4,4.2c7.2,2.3,13.7-0.3,20.5-1.3c7.5-1.2,12.9-6.8,19.6-9.5
		c8.6-3.4,13.1-11,16.6-18.2c4.8-9.8,7.4-20.7,9.3-31.6c0.3-1.8,1.3-4.1-0.2-5.2c-2-1.5-2.9,1.5-4.3,2.3c-1.5,0.8-2.8,1.9-4.6,1.4
		c-2.1-0.6-1.4-2.3-1.4-3.7c5.2-4.1,6.3-10.6,8.9-16.2c0.5-1,0.6-2.9-0.5-3.7c-1.2-0.8-2.5,0.2-3.7,0.7c-1.5,0.7-2.8,1.7-4.3,2.4
		c-0.9,0.4-2.1,0.5-2.7-0.4c-0.7-1,0.1-1.9,0.7-2.6c1.7-2,3.4-4,5.1-6.1c2.3-2.9,4.4-5.9,3.3-9.9c-1.5-5.2-2.5-10.6-4.9-15.5
		c-3.8-14.4-11.9-26.8-18.3-39.9c-1.7-3.4-4.1-3.8-6.7-1.8c-7.6,5.7-16.8,7.5-25.5,10.7c-1.7,0.6-4.3,2.3-6.3-0.7
		c2.1-0.7,4-1.1,5.8-1.9c1.8-0.8,3.5-1.9,5.3-2.7c23.4-9.4,38.8-26.8,48.9-49.4c0.9-2,0.7-3.3-0.6-4.9c-7.2-8.4-14.8-16.6-20-26.5
		c-2.3-4.7-5.8-8.8-7.1-14.1c3-0.5,3.4,2.2,4.5,3.7c10,15.2,21,29.5,34.3,42.1c6.9,6.6,16.1,7.4,23.6,1.4
		c11.9-9.5,19.7-21.6,22.8-36.5c0.7-3.2,2.3-7.1-1.2-10.1l-0.1,0c-0.6-1.4-2-2-3.1-2.8c-6.1-6.6-13.2-12.2-19.9-18.1l-0.3-0.1
		l-0.3,0.3l0-0.2c0.4-0.8-0.2-1.2-0.6-1.7c-5.2-5.5-10.6-10.8-15.7-16.3c-3.9-4.1-6.3-9.6-11.2-12.7l0-0.1c0-0.6,0.2-1.4-0.1-1.8
		c-2-3.6-4.1-7.1-6.2-10.7c-0.7-1.2-1.6-2.5-0.2-3.5c1.7-1.3,2.2,0.7,2.9,1.6c1.6,1.9,3,3.9,4.5,5.9c0.3,1,0.9,1.7,1.9,2.1
		c0,0,0,0,0,0c1.5,2.1,3,4.2,4.4,6.3c0-3-0.3-5.6-2.2-7.6c0.2-1.7-0.4-3.3-1-4.8c-6.5-15-15.8-27.7-29.3-37.1
		c-16.4-11.4-34.7-18.9-53.9-24c-3.3-0.9-6.7-2.3-10.3-1c-3.9-2.4-8.3-2.2-12.6-1.8c-0.8-0.1-1.6-0.2-2.4-0.3c0,0-0.2-0.2-0.2-0.2
		c-3.3-1.4-6.7-0.7-10.1-0.5c-3.5-0.7-6.9-0.2-10.3,0.8c-0.3-0.1-0.6-0.1-0.9,0.1c-1-0.2-2-0.3-2.6,0.8l-0.1-0.1
		c-1.7,0.1-3.6-0.5-4.9,1.1l-0.2-0.2c-0.8,0.1-1.5,0.2-2.3,0.3c-4.1,0.8-8.5,1-12.2,3.3c-2.5,0.8-5,1.6-7.5,2.4
		c-6.5,2.1-13,5.8-19.5,5.7c-8.1,0-16.4-0.1-24.6-0.6c-0.8-2-0.1-3.1,2-3.2c1.4-0.1,3,0.5,3.8-1.3c1.1-0.1,2.3-0.1,3.4-0.2
		c0,0,0.1,0.3,0.1,0.3L111.6,127.2z M325.8,215.2l0-0.1c0.1,0.6,0.4,1,1,1.1l-0.1-0.1c0,0.7,0.3,1.1,1,1.1l-0.1,0.2
		c1.3,4.1,4.8,6.1,7.8,8.7c7.6,6.5,15.5,12.6,22.2,19.9c9.1,10,17.9,20.1,28.2,29c0.7,3.2,4.2,3.4,5.8,5.5
		c6.7,8.5,14.7,15.9,22.4,23.5c3.8,6.7,5.6,7,10.7,1.9c1.1-1.2,2.1-2.6,3.1-3.8l0,0c0.7,0,1-0.4,1-1l0,0c0.9-0.4,1.2-1.1,1-2l0,0
		c1.5-0.4,1.9-1.8,2.5-3c3.7-5.4,7.5-10.7,11.2-16.1c2.2-4.2,3.1-8.5,0.8-13c-0.1-1.2-0.1-2.5-1.5-3l0.1,0c-0.2-1-0.2-2-0.5-2.9
		c-5.9-16.8-14.5-32.3-23.3-47.6c-7.3-12.7-14.6-25.4-24.6-36.2c-11-11.9-23-22.9-34.6-34.2c-4.8-4.7-11.4-4.6-13.9,0.4
		c-4.5,9-9.2,18-12.7,27.5c-1.7,1.1-1.7,2.9-2.2,4.6c-2.3,3.9-3.7,8-4.6,12.4l0.1,0c-2.3,2.2-3,5-3,8.1l0,0
		c-2.5,4.5-5.2,8.9-2.1,14.2c0.5,2,1.6,3.5,3.3,4.7C325.2,215.2,325.5,215.3,325.8,215.2z M55.9,268.1c0.1,0.6,0.4,0.9,1.1,0.9
		c1.8,0.4,3.4-0.2,4.3-1.8c2.5-4.3,5.7-8.1,6.9-13.1c4.3-3.5,4.4-8.1,3.4-13c-0.3-1.6-0.3-3.3-0.2-5c0.7-11.5,1.5-23,2.3-35.8
		C64.3,211.7,54,220.8,45,231.2c-7,8.1-5.8,15.8-1.1,24l0-0.1c0,1.7,0.6,3.1,2.1,4l0,0c0.3,1.7,1.2,2.8,2.9,3.1l-0.1,0
		c0.7,2.7,2.9,3.3,5.1,4l0-0.1c0.4,0.3,0.7,0.7,1.1,1l0,0C55.3,267.4,55.7,267.8,55.9,268.1L55.9,268.1z M316.9,407
		c0.4,0.5,0.7,1,1.1,1.5c2.1,5.3,7.2,9.9,4.2,16.6c-0.3,0.6,0.6,0.9,1.3,1.1c2.5,0.6,1.9,2,1,3.7c-1.9,3.5-0.6,5.6,3,6.7
		c1.6,0.5,3.6,0.5,4.6,1.5c1.2,1.3,1.8,2.1,3.4,0.6c1.4-1.2,1.5-2.4,0.7-3.9c-1.4-2.5-2.7-5-4-7.5c-2.8-5.5-1.9-8,3.9-10.4
		c5.1-2.1,10.2-4,15.3-6.2c7-3,8.1-5.8,5-12.8c-1.7-3.9-3.9-7.7-5.8-11.5c-1.2-2.5-1.8-5.3-0.1-7.6c2.4-3.5,4.9-7,8.3-9.8
		c9.6-7.9,19.6-15.2,28.9-23.5c5.9-5.3,11.6-10.9,18.3-15.3c2-1.3,3.2-3.8,2.5-5.5c-1-2.5-3.1,0.1-4.7,0.3c-2.1,0.3-4.3,0.8-6.4,0.8
		c-7.3,0-14.5,0.3-21.8,0.2c-14-0.2-27.3-3.4-39-10.5c-10.6-6.4-21.8-12.1-31.4-20c-2-1.7-2.7-1.8-4.3,0.9
		c-5.6,9.8-11.1,19.6-19.3,27.7c-1.6,1.6-5.1,3.7-3.6,6.7c2.6,5.3,4.9,10.8,8.7,15.5c0.8,6.2,4.4,11.2,7.2,16.5l-0.1,0.1
		c0.2,2.5,1.4,3.9,4.1,3.4c7.2,6.5,15.4,11.8,23.4,17.2c5.4,3.7,5.9,7.5,1.1,12c-1.5,1.3-2.9,2.7-4.3,4c-3.2,2-4.5,4.3-1.1,7.2
		L316.9,407z M305.4,423.4c-0.1,3.4,2,5.6,4.5,4.9c7.5-2.2,9.5-6.9,6-13.8c-0.5-1-1.2-2-1.8-3c-3.8-6-3.6-7.9,1-13.2
		c1-1.1,1.9-2.3,3-3.3c2.6-2.3,2.2-4.5-0.1-6.8c-4.6-4.7-10.6-7.3-16-10.8c-0.9-0.6-2.3-0.8-3.2,0.1c-1,1.1-0.1,2.1,0.2,3.2
		c1.3,4.3,3.8,8.1,4.2,12.7C304.2,403.3,306.4,413.3,305.4,423.4z M22.4,270.7c-2.1-1.1-2.5-5.5-5.9-3c-1.8,1.3-1.8,3.8-0.8,5
		C18.6,275.8,19.5,269.6,22.4,270.7z M115.9,488.4c-0.7-0.2-1.1-0.4-1.5-0.5c-0.3,0-0.5,0.2-0.8,0.4c0.3,0.2,0.6,0.6,0.9,0.7
		C114.8,488.9,115.2,488.7,115.9,488.4z"/>
	<path class="st1" d="M118.9,40.5c-0.7,15.5-1.3,31.1-3,46.6c-0.4,3.9-2.4,4.8-5.9,5.9c-9.9,3.2-19.3,0.8-28.8-1
		c-8.6-1.6-10.2-0.2-10.3,8.7c0,1.2,0.1,2.4-0.1,3.5c-0.1,0.7-0.6,1.7-1.2,2c-1,0.6-1.9-0.3-2.5-1.1c-2.1-3-4.4-5.8-6.1-9.1
		c-1.5-2.9-3.5-3.6-6.5-3.2c-8.1,1.1-16.1-0.2-24-2.1c-6.1-1.5-9.5-5.7-11-11.7c-3.4-13.8-3-27.7-0.9-41.5
		c1.3-8.3,3.1-16.6,4.7-24.9c1.4-7.2,3.1-8.6,10.4-8.6c13.3,0,26.2-4,39.6-3C85.5,2.1,97.6,3.9,109.5,7c6.5,1.7,8.5,4.5,8.4,11.1
		C117.8,25.6,119.8,33,118.9,40.5z M67.2,100.9c1.5-1.9,0.9-3.4,1-4.8c0.5-6.7,0.8-6.8,7.3-7c7.4-0.1,14.5,1.6,21.7,2.9
		c5.3,0.9,9.6-2,14.5-2.4c1.2-0.1,1.3-1.7,1.4-2.9c1-15.2,2.1-30.4,3-45.6c0.4-7.5-1.5-14.9-0.9-22.4c0.4-5.3-2.1-8.2-7.1-9.1
		C95.4,7.2,82.8,4.3,69.8,4C57,3.7,44.6,7.7,31.7,7.1c-2.6-0.1-4.4,1.5-5,4.6c-1.2,6.8-3.1,13.6-4.3,20.4
		c-2.8,15.8-4.3,31.5,0.3,47.3c1.4,5,4.3,7.7,9,8.8c7.6,1.8,15.3,2.6,23.1,2c3.6-0.3,7.3-0.9,8.6,4.3
		C63.8,96.7,65.7,98.5,67.2,100.9z"/>
	<path class="st2" d="M112,153c-6.1-5.9-12.7-11.1-16.6-19.1c-1.6-3.2-5.3-6.8-10.3-4c-2.5-3.3-0.7-3.9,2.3-3.7
		c6.9,0.4,13.7,0.8,20.6,1.2c-0.8,1.8-2.4,1.2-3.8,1.3c-2.2,0.2-2.8,1.2-2,3.2c-0.7,2.5,1.3,2.7,2.8,3.2c-0.3,2,1.1,3.3,2.2,4.7
		c2.8,3.6,5.8,7,9.2,10.1c0.8,0.8,1.9,1.6,1.3,2.9c-0.7,1.6-2.2,1.1-3.4,1C113.5,153.8,112.7,153.3,112,153z"/>
	<path class="st2" d="M111.6,127.2l-0.1,0.3c0,0-0.1-0.3-0.1-0.3C111.4,127.2,111.6,127.2,111.6,127.2z"/>
	<path class="st3" d="M112,153c0.8,0.3,1.5,0.8,2.3,0.9c1.2,0.1,2.8,0.6,3.4-1c0.5-1.3-0.5-2.2-1.3-2.9c-3.4-3.1-6.4-6.5-9.2-10.1
		c-1.1-1.5-2.5-2.7-2.2-4.7c2.1-1.6,4.4-1.8,6.1,0.3c3.8,4.5,9,4.5,13.8,3.3c5.1-1.3,5.2,0.9,5.2,4.7c0,2.2-1.2,3.9-2.5,5.3
		c-7.7,8.6-10.6,19.9-16.6,29.4c-4.1,6.6-1.4,13.6-0.7,20.4c0.3,3.3,3.4,6.1,6.2,8c2,1.4,4.1-1,6.2-1.8c3.6-1.4,7.5-1.4,9.6,2.5
		c1.3,2.5,2.4,3.9,5.4,4.1c2,0.2,4.3,1.5,5,3.6c0.9,2.8,3.7,3.9,4.8,6.2c3.3,7.1,8,6,14.2,4c8.6-2.9,17.9-1.8,26.6-1.3
		c9.4,0.5,16.6-3.1,24.2-6.8c7-3.5,12.7-9.2,20.6-11.4c2.9-0.8,5.9-3,6.5-6.3c0.5-2.9,1.7-5.4,3.2-7.7c5-8.1,6-16-1-23.6
		c-0.7-0.8-0.4-1.8-0.3-2.8c0.5-3.4,1.5-7,1-10.3c-0.7-4.6-2-9.5-6.8-12c-12.4-6.3-25-11.6-39.3-12.1c-3.7-0.1-7.6-0.6-11.4-0.9
		c-3.3-0.3-6.4-1.4-7.6-5.2c-0.3-0.9-0.3-2.3-1.5-2.3c-3.8,0.2-7.6,0.4-11.3,1.2c-3.6,0.7-7.1,1.9-10.8,0.8
		c3.7-2.3,8.1-2.5,12.2-3.3c0.9,1.1,1.6,0.7,2.3-0.3c0,0,0.2,0.2,0.2,0.2c1.8,0.1,3.6,0.5,4.9-1.1c0,0,0.1,0.1,0.1,0.1
		c1,0.1,1.9,0.1,2.6-0.8c0.3-0.1,0.6-0.1,0.9-0.1c1,1,1.7,3.9,2.1,3.3c2.1-3.1,7.2,0.4,8.2-4.1c3.4-0.2,6.8-0.9,10.1,0.5
		c-1.7,0.2-3.5,0.3-6.6,0.6c3.3,0.9,5.1,0.9,6.7-0.4c0.8,0.1,1.6,0.2,2.4,0.3c4,2.1,8.3,2,12.6,1.8c3.6-1.3,6.9,0.1,10.3,1
		c19.3,5,37.5,12.6,53.9,24c13.5,9.4,22.8,22.1,29.3,37.1c0.7,1.5,1.2,3.1,1,4.8c-0.5,0.9-1.4,1.2-2.3,1.3c0,0,0,0,0,0
		c0.1-1.4-0.5-2.1-1.9-2.1c-1.5-2-3-4-4.5-5.9c-0.7-0.9-1.3-2.8-2.9-1.6c-1.4,1.1-0.4,2.4,0.2,3.5c2.1,3.6,4.2,7.1,6.2,10.7
		c0.3,0.5,0.1,1.2,0.1,1.8c-5.1,2.9-6.9-1.6-8.8-4.5c-1.7-2.6-3.9-3.5-6.1-2.7c-2.3,0.8-1.2,3.5-1,5.3c0.5,4.3,3.9,7.2,6,10.6
		c3.2,5.1,7.8,9.2,12.7,12.8c1.5,1.1,2.9,0.8,3.8-0.8c0.8-1.3,1.9-2.9,0.2-4c-6.1-4.1-5.9-10.6-6.7-16.8c4.9,3.1,7.3,8.6,11.2,12.7
		c5.2,5.5,10.6,10.8,15.7,16.3c0.5,0.5,1,0.9,0.6,1.6c-0.3,0-0.6,0.1-0.9,0.1c0.3,0,0.6,0.1,0.9,0.1l0.3-0.3c0,0,0.3,0.1,0.3,0.1
		c0,1.9-0.9,3.7-0.1,5.8c1,2.4-0.6,4.1-2.9,3.6c-3.3-0.7-6,0.6-8.9,1.5c-3.2,1-6.1,0.6-9.1-0.7c-12.5-5.1-22.8-14.1-34.9-19.8
		c-1.2-0.6-1.9-1.6-2-2.6c-0.5-6.4-5.5-7.2-10.1-8.2c-2.2-0.5-3.7,0.4-4.2,3c-0.9,4.9-1.8,9.7-2.7,14.6c-1.3,7,0.6,14.2,0.5,21.4
		c-0.1,6.7,1.2,14.3,4.3,20.9c-0.1,2.7-1.5,5.2-1,8c-2.8-1-6.1-3.6-8.3,0.2c-1.8,3.1-5.7,2.3-7.5,5.3c-0.5,0.9-2,0.2-2.1-1
		c-0.6-5.6-4-3.4-6.9-2.5c-0.1-2-0.1-3.9-0.3-5.9c-1.3-10.5-3.4-13-12.9-15.2c1.1-1.4,2.1-2.7,3.3-4.2c-4.3-1.7-7.4-5.3-13.1-3.9
		c-4.1,1-5.7,4.3-9,5.8c-2,0.9-3,2.8-1.5,5c1.3,1.9,2.4,4.1,5.3,1.8c1.4-1.1,3.2-0.6,4.8-0.2c-0.8,1.6-1.5,3.3-2.5,4.8
		c-6.1,9-9.2,18.9-9.2,29.8c-1.1,1.1-0.3,3.8-3.3,3.2c-4.3-0.8-8.9-0.7-13-2.1c-4-1.4-8.8,1.3-12-2.8c-0.2-2.3-1.6-3.5-3.8-4
		c-2.8-0.6-5.5-1.7-8.2-1.7c-4.5-0.1-7.4-4.4-11.9-4.3c0.3-1-0.2-1.7-1-2.3c-0.1-2-0.3-4.1-2.8-4.5c-6.4-1.1-9.7-4.7-10.2-11.2
		c-0.1-1.3-0.1-2.7-1.4-3.5c-3.7-2.4-8.1-4.1-10.3-8.4c-0.6,0.3-1.1,0.7-1.7,1c-0.1-0.3,0-0.5,0.1-0.7c0.3-1.6,0.7-3.1,1-4.7
		c-0.1-2.3-0.3-4.6-0.3-6.9c0.1-4-0.4-8-4.7-9.4c-4.1-1.3-8,0.1-10.9,3.5c-1.3-1.2-3.7-0.7-4.5-2.8c1.3-1.8,6.6-2.6,3.6-5.3
		c-3.4-3.1-3.3-5.6-2.2-9.1c0.4-1.2,0-2.5-1.1-3.1c-4.2-1.9-3.7-5.1-2.8-8.8c1-4,1.8-8.1,3.6-11.9c0.7-1.5,1.2-3.4-0.5-4.5
		c-1.5-0.9-3.2-0.6-4.5,0.9c-0.5,0.6-0.9,1.5-2.8,0.4c2.9-5.8,2.1-13.3,8.5-17.7c1.2-0.8,2.1-1.7,1.7-3.2c-0.3-1.1-0.8-2.6-2.1-2.5
		c-2.2,0.1-4.4-1.6-6.6-0.2c-1.8-0.4-4.4,1-5.1-2.2C96.3,159.2,104.4,156.6,112,153z"/>
	<path class="st2" d="M112,405.4c0.1-0.5,0.1-1,0.2-1.5c3-1.3,2.3-3.1,0.7-5c1.4-3.2-0.6-6.7,1.5-10.1c0.6-1-2.9-3.5-5.4-3.3
		c-1.4,0.1-1.7-0.4-1.9-1.5l0.1-0.1c1.3-1.6-0.1-1.7-1.1-2c0,0,0.1,0.1,0.1,0.1c-0.4-0.4-0.7-0.7-1.1-1.1l0.1,0.1
		c-0.3-1-0.9-1.8-2-2c0,0-0.2-0.2-0.2-0.2l0.2,0.2c-3.6,1.5-3.5-2.4-4-3.6c-1.2-2.8-2.5-5.4-4.4-7.8c-2.5-3-2.7-6.8-2.5-10.4
		c0.7-10.2,1.4-20.5,7.4-29.4c2.2,1.7,4.1,5.1,7.1,0.9c0.5-0.7,1.5,0.1,2,0.8c1.8,2.7,3.4,1.2,4.7-0.3c1.6-2,3.6-3.6,3.9-6.6
		c0.2-2.4,2.1-3.7,4.8-2.5c1.2,1.3,2.1,3,4.2,3.1c4.1,0.1,5.4,3.1,5.6,6.3c0.5,5.2,2.3,10.6-0.9,15.7c-0.3,0.3-0.7,0.6-1,1
		c-4.3-1.4-8.7-2.6-12.9-4.3c-7.1-2.9-9-2.2-11.2,4.5c-0.1,0.3-0.1,0.8-0.3,0.9c-7.2,2.4-7.8,6-1.9,10.8c-1.1,9.2,6.1,15.5,8.2,24
		c1.2-2.7,3.1-3.3,5.4-2.8c2.4,0.5,1.5,2.6,1.9,4.1c1.9,6.4,5.2,11.7,11.5,14.7c1.1,0.5,2.2,1.5,3,2.6c1.9,2.8,4.2,5,7,7
		c2.5,1.8,4.2,4.5,4.1,7.6c-0.3,8.1,3.7,14.4,11.3,16.9l0,0c0,5.6,2,10.7,3.5,15.9c0.3,0.9,0.8,2,2.1,1.8c1.3-0.2,1.6-1.4,1.3-2.3
		c-1.3-3,0.3-3.8,2.7-5.1c2.4-1.2,4.9-3.2,4.3-6.6c-0.4-2.5-2.1-4-4.5-4.7c-0.8-0.3-2,0.5-2.6-0.9c3.7-3.3,8.9-3.9,12.9-6.7
		c1.7-1.2,3.7-1.1,3.8,2.6c0.1,2.4-0.9,5.7,1.7,7.9c3.1,4.8,10.1,4.3,13,9.4c0.1,0.2,0.6,0.4,0.9,0.3c4.4-1.2,8.1,1.4,12.2,2.3
		c9.5,2.1,16.8-2.7,24.4-7.3c4.3-2.6,6.9-7.4,11.4-9.3c4.6-1.9,6.6-5.6,8.2-9.7c1.3-3.5-1.3-1.2-2.2-1.1c0.5-4.8-1.6-7.7-6.1-8.5
		c-1.7-0.3-3.7,0.6-5.1-1c7.2-3.6,15-4.9,23-5c1.3,2.2,3.3,4.1,3,7l0,0c-2-0.9-2.4-3.1-3.9-4.5c-1.6-1.6-3.1-0.6-4.6-0.4
		c-1,0.1-1.2,0.9-1,1.9c1.2,4.6,2.4,9.3,3.6,13.9c0.3,1.2,1.2,2.2,2.6,1.8c2-0.7,0.7-2.1,0.6-3.3c-0.3-2.6-3-4.7-1.8-8.2
		c2.3,2.3,4.1,4.2,5.4,6.5c0.9,1.6,1.8,3.5,4.1,3c2.4-0.5,1.9-2.7,2-4.5c0.2-2.8-0.5-5.8,0.9-9.9c1.2,3.9,1.9,6.5,2.8,9
		c0.5,1.2-0.2,3.5,2,3.4c2.3-0.1,2.3-2,2.3-3.7l0,0c1.3,2.2,1.5,4.9,4.3,6.6c2.5,1.5,3.7,4.9,7.6,4.2c0.9-0.2,1.1,1.5,1.2,2.4
		c-0.1,1.4-0.7,3.1,1.4,3.7c1.8,0.5,3.1-0.6,4.6-1.4c1.5-0.8,2.3-3.8,4.3-2.3c1.5,1.1,0.5,3.4,0.2,5.2c-1.9,10.9-4.5,21.8-9.3,31.6
		c-3.5,7.2-7.9,14.8-16.6,18.2c-6.7,2.7-12.1,8.3-19.6,9.5c-6.8,1.1-13.3,3.6-20.5,1.3c-2.9-0.9-3.7-1.5-2.4-4.2
		c0.4-0.9,1.2-1.9,0.2-2.7c-1.2-0.8-2.2,0.2-3.1,0.9c-1.3,1.1-2.2,2.3-2.5,4.1c-0.6,3.1-3.2,4.5-5.7,3.6c-2.4-0.9-4.4-3.2-1.6-6.2
		c0.8-0.8,1.1-2.2,0.2-3.2c-1.3-1.3-2.4-0.4-3.4,0.6c-1.3,1.2-3.3,2.1-4,3.6c-1.1,2.6-2.7,2-4.4,1.3c-2.1-0.8-1.6-2.6-1.2-4.3
		c0.3-1.8,2.2-2.9,2.1-5c-0.5-0.1-1.2-0.4-1.4-0.3c-7.1,7.3-15.6,3.1-23.3,2.2c-7.3-0.9-14.6-0.7-21.9-0.6
		c-4.9,0.1-9.7-0.5-14.5-1.3c-4-0.7-7.7,0.2-11.6,1c-8.6,1.9-17.6,4.9-25.9,1c-3.2-1.5-5.3-3.2-8.6-1.5c-2.1-4.4-5.7-2.7-9.2-2.8
		c-2.2-0.1-2.4-2.7-1.1-4.8c1.7-2.8,4-5.1,6.7-6.6c5-3,4.4-6.3,1.7-10.2c2.2-0.6,1.6-2.1,1.3-3.6c-0.7-2.7-1.3-5.4-2.1-8.1
		c-2.2-7.7-0.1-11.4,7.4-13.7c1-0.3,2-0.7,2.7,0.3c2.8,4,5.6,1.4,7.5-0.5c2.5-2.5,3.3-5.8-0.6-8.2c-1-0.6-1.7-1.3-0.8-2.2
		c2.3-2.5,0.4-4.6-1-6C112.3,414.2,111.7,410,112,405.4z M239.8,463.7c-0.5-0.6-1-1.7-1.8-2c-4.7-2-9.5-4-14.4-5.6
		c-2.3-0.8-4.3,1-5.2,2.9c-0.9,1.9-0.5,3.6,1.7,5.4c5.4,4,11.6,1.3,17.3,3.1C238.5,467.8,239.3,465.5,239.8,463.7z M153,448.6
		c0.1-4.3-2.6-6.5-7.1-5.6c-1,0.2-2.3,1.4-2.8-0.5c-0.4-1.5-0.3-3.1,1.2-4c0.7-0.4,1.6-0.4,2.4-0.6c1-0.2,2.2-0.3,2-1.6
		c-0.3-1.8-1.6-1.2-2.7-0.9c-7.4,1.6-9.4,10.8-3.8,17.2c1.7,1.9,3.4,2.9,6.1,1.7C150.8,453.1,153,451.8,153,448.6z M114,445.3
		c-4.1-0.7-7,0.2-8.6,3.3c-2.2,4.2-1.5,8.4,1.1,12.1c2,2.9,4.9,4.3,8.2,2.6c2.6-1.4,4.1-4,3-7.2c-1.3-3.8-4.1-5.4-7.8-3.8
		c-2.1,0.9-1.6-0.2-1.8-1.3C107.4,446.9,112.1,448.2,114,445.3z M181.9,443.1c-1-4.4-3.5-8.5-3.8-13.2c-0.1-1.4-1.1-2-2.5-1.8
		c-1.5,0.3-1.7,1.5-1.4,2.7c1.2,4.5,2.6,8.9,3.9,13.4c0.4,1.4,1.3,1.8,2.6,1.5C182,445.3,181.9,444.3,181.9,443.1z"/>
	<path class="st2" d="M259,274c-0.5-2.8,0.9-5.3,1-8c6.9,1.5,9.2-3.6,11.9-8.8c1.2,2,2,4.2,4.5,3.7c5.2,10,12.8,18.1,20,26.5
		c1.3,1.6,1.5,2.9,0.6,4.9c-10.1,22.6-25.5,40-48.9,49.4c-1.8,0.7-3.5,1.9-5.3,2.7c-1.8,0.8-3.8,1.2-5.8,1.9c1.9,3,4.6,1.3,6.3,0.7
		c8.6-3.1,17.8-4.9,25.5-10.7c2.6-2,5.1-1.6,6.7,1.8c6.5,13.1,14.6,25.5,18.3,39.9c-2.8,0.3-6.1,1.2-8.1-1
		c-7.3-7.9-17.6-10.4-26.8-14.8c-3.5-1.7-7.4-4-11.7-3c-2.8,0.7-5.2-0.2-7.7-0.9c-4.4-1.4-9.1-1.1-13.6-1.8
		c-5.9-1-11.8,0.5-17.7,0.3c-11.3-0.4-21.9-6.1-33.5-3.8c-0.3,0.1-0.7-0.1-1-0.2c-12.2-4.6-24.4-4.4-36.8-0.7c0-1.1-0.6-1.8-1.4-2.4
		c1.4-8.4,0.5-16.7-1.6-24.9c-0.2-0.7-0.8-1.7-1.4-2c-5.3-1.9-8-6.1-11.1-10.5c-2.7-3.9-11.3-3.5-15.1,0c-8.9,8.1-9.5,8.9-18.5,1.2
		c-10.1-8.7-19.8-18.3-23.2-31.9c-1.4-5.6-1.3-11.2,2.6-16.6c2.7-3.8,5-8.1,8-11.9c1.2-1.6,0.9-3.4,0.9-5.2
		c-0.3-10.1-1.1-20.2,0.5-30.3c0.3,0.5,0.6,1.1,0.8,1.6c0.7-3.2,3.4-1.5,4.6-1.3c1.6,0.3,0.8,2.6,0.9,4c0.1,5.7-1.6,12.1,0.5,16.8
		c4.7,10.5-4.2,18.6-3.2,28.1c-5.1,3.5-1.1,4.8,1.4,6.7c1.4,1.1,2.4,2.7,3.5,4.1c2.5,3.1,9.5,4.5,13.1,3c2.2-0.9,6.7-1.3,6.7,0.3
		c0,3.7,2.4,5.1,4.3,6.6c5.2,4,9.9,9.8,17.9,5.7c2-1,5.6-1.4,5.9,2.9c0,0-0.1,0-0.1,0c-2.9,2.2-3.1,4.2-0.4,5.9
		c-0.3,2.6,3.1,4.6,1.5,7.4c-2.5,4.3-0.7,7.9,1.4,11.6c0.7,1.1,1.2,2.7,2.8,2.1c2.4-0.9,1.1-2.6,0.5-4.1c0.8-3.1-1.2-6.1-0.1-9.2
		l-0.1-0.1c2.7,0.4,5,0.6,3-3.3c-0.4-0.7-0.2-1.6-0.4-2.4c-0.3-1.3-0.9-2.7,0.5-3.6c1.2-0.8,2.1,0.4,3.1,0.9
		c7.5,4.1,15.6,4.9,24,4.7c2.1-0.1,4.5,0.3,5-2.7c0.4-3-1.1-4.1-3.9-4.5c-2.3-0.3-3.2-2-3-4.3c0.2-2.8,2.2-2.3,4-2.4
		c3.2,4,8,1.4,12,2.8c4.1,1.4,8.7,1.3,13,2.1c3,0.6,2.2-2.1,3.3-3.2c0.3,1.1,0.5,2.2,0.8,3.4c2.8,10.4,16.5,15,24.3,8.2
		c3.4-3,4.2-7.4,6.4-11.1c1.7-1.8,3.4-2.8,5.4-0.3c1,1.2,2.7,1.8,3.9,0.4c2.4-3,6-3.2,9.2-4.4c2-0.8,4.6-1.3,5-3.7
		C255.1,281.6,258.1,278.2,259,274z M237.7,312.1c0-1.4-0.8-2.5-2-2.5c-2,0.1-2.1,2.2-2.8,3.5c-0.5,1,0.3,1.6,1.2,1.5
		C235.8,314.6,237.3,314,237.7,312.1z"/>
	<path class="st1" d="M153.8,124.4c3.7,1.1,7.2-0.1,10.8-0.8c3.7-0.7,7.5-0.9,11.3-1.2c1.3-0.1,1.3,1.4,1.5,2.3
		c1.1,3.8,4.2,4.9,7.6,5.2c3.8,0.3,7.6,0.7,11.4,0.9c14.3,0.5,26.9,5.8,39.3,12.1c4.7,2.4,6,7.3,6.8,12c0.5,3.3-0.5,6.9-1,10.3
		c-0.1,1-0.5,2,0.3,2.8c7.1,7.6,6,15.4,1,23.6c-1.4,2.4-2.6,4.8-3.2,7.7c-0.6,3.3-3.6,5.5-6.5,6.3c-7.8,2.2-13.5,7.9-20.6,11.4
		c-7.6,3.8-14.8,7.3-24.2,6.8c-8.7-0.5-18.1-1.6-26.6,1.3c-6.2,2.1-10.9,3.1-14.2-4c-1.1-2.3-3.9-3.5-4.8-6.2c-0.7-2.1-3-3.5-5-3.6
		c-3-0.3-4.1-1.7-5.4-4.1c-2.1-3.9-6-3.9-9.6-2.5c-2.1,0.8-4.2,3.2-6.2,1.8c-2.8-1.9-5.9-4.8-6.2-8c-0.7-6.7-3.4-13.8,0.7-20.4
		c6-9.6,8.9-20.8,16.6-29.4c1.3-1.4,2.5-3,2.5-5.3c0.1-3.7,0-6-5.2-4.7c-4.7,1.2-9.9,1.3-13.8-3.3c-1.8-2.1-4-1.9-6.1-0.3
		c-1.6-0.5-3.6-0.6-2.8-3.2c8.2,0.6,16.4,0.6,24.6,0.6c6.5,0,13-3.7,19.5-5.7C148.8,126,151.3,125.2,153.8,124.4z M181.7,199
		c2.5-0.4,3.8-2.9,5-5.1c0.6-1.1-0.7-1.8-1.7-1.7c-2.9,0.4-4.5,2.5-5.5,5C178.9,198.5,180.2,198.9,181.7,199z M164.4,127.8
		c0,0.1-0.1,0.2-0.1,0.4c0,0,0.2,0.1,0.3,0.1c0-0.1,0.1-0.2,0.1-0.4C164.7,127.9,164.5,127.8,164.4,127.8z"/>
	<path class="st3" d="M333.5,170.9c3.5-9.5,8.2-18.5,12.7-27.5c2.5-5.1,9.1-5.1,13.9-0.4c11.6,11.3,23.6,22.3,34.6,34.2
		c9.9,10.7,17.3,23.5,24.6,36.2c8.8,15.4,17.4,30.8,23.3,47.6c0.3,0.9,0.3,1.9,0.5,2.9c-2.6,0.1-2.2-2.2-2.5-3.6
		c-1.1-5.1-5.2-5.6-9.1-6.2c-3.8-0.6-5.1,1.8-5.9,5.1c-0.6,2.5-3,4.2-5.6,4.5c-3.6,0.5-7.2,0.7-10.8-0.6c-7.1-2.5-12.9-7.4-19.3-11
		c-7.7-4.3-14.3-10.5-21.5-15.7c-4.5-3.3-7.3-8.2-11.5-11.5c-5.1-4.1-10.4-8.1-15.6-12.2c-2.9-2.2-4.9-2-6.3,1.1
		c-1.4,3.1-3.4,3.1-6,2.2c-0.5-1.6-0.5-3.6-1.5-4.6c-3.2-3.1-1.7-5.9-0.8-9.4c2.1-7.6,4.6-15.1,5.3-23c0,0,0,0,0,0
		c0.8-0.4,1-1.2,1-2C335.3,175.2,337.2,173.3,333.5,170.9z M366.3,180.5c0.1-1.8-1.2-2.1-2.6-2.3c-1.3-0.1-2.7,0.2-3.5-1.3
		c-2.3-4-4.5-1.5-6.8,0.1c-1.7,1.2-2.7,2.6-1.4,4.6c1.5,2.2,3.8,1.8,5.1,0.2c2.1-2.7,2.6-1.2,3.5,0.7c0.6,1.4,2,1.6,3.4,1.1
		C365.4,183.1,365.9,181.8,366.3,180.5z"/>
	<path class="st2" d="M286.6,346.6c-3.8-4.7-6.1-10.2-8.7-15.5c-1.5-3,2-5.1,3.6-6.7c8.1-8.1,13.6-18,19.3-27.7
		c1.5-2.7,2.2-2.6,4.3-0.9c9.7,7.9,20.8,13.6,31.4,20c11.7,7.1,25,10.2,39,10.5c7.3,0.1,14.5-0.2,21.8-0.2c2.1,0,4.3-0.5,6.4-0.8
		c1.6-0.2,3.6-2.8,4.7-0.3c0.7,1.7-0.5,4.2-2.5,5.5c-6.7,4.4-12.4,10-18.3,15.3c-9.2,8.3-19.3,15.6-28.9,23.5
		c-3.4,2.8-5.9,6.3-8.3,9.8c-1.6,2.4-1.1,5.1,0.1,7.6c1.9,3.9,4.1,7.6,5.8,11.5c3.1,7,2,9.8-5,12.8c-5,2.2-10.2,4-15.3,6.2
		c-5.8,2.4-6.7,4.9-3.9,10.4c1.3,2.5,2.6,5,4,7.5c0.9,1.5,0.7,2.7-0.7,3.9c-1.6,1.5-2.2,0.6-3.4-0.6c-1-1-3-1.1-4.6-1.5
		c-3.6-1.1-4.9-3.2-3-6.7c0.9-1.7,1.5-3.1-1-3.7c-0.7-0.2-1.6-0.5-1.3-1.1c3.1-6.7-2.1-11.3-4.2-16.6c-0.4-0.5-0.7-1-1.1-1.5
		c0,0,0,0.1,0,0.1c0.4-2.4,0.8-4.8,1.1-7.2c1.4-1.3,2.9-2.7,4.3-4c4.8-4.5,4.4-8.3-1.1-12c-8-5.4-16.2-10.7-23.4-17.2
		c-0.8-1.8-1.8-3.4-4.1-3.4c0,0,0.1-0.1,0.1-0.1c1.6-4.5,5-8.8,1.5-14c-0.8-1.2,0.7-1.7,1.9-2.1c8.5-3.3,16.9-7,25.7-9.7
		c4.4-1.3,7.1-5.2,8.2-10.3c1.3-5.8-3.4-8-5.2-11.9c-3.1-3.5-7.4-5.5-11.2-7.9c-3.7-2.4-10.8,0.2-12.7,4.1c-0.7,1.4-1.6,2.5-2.5,3.6
		c-5,6.3-10.6,12.4-10.7,21.2C285.3,338.9,288.7,343.3,286.6,346.6z"/>
	<path class="st3" d="M135.6,349.5c0.9,0.6,1.4,1.3,1.4,2.4c-0.9,5,3.3,6.2,6.2,8c8.5,5.1,17.2,10,26,14.7
		c5.5,2.9,11.1,5.4,17.9,3.9c10.6-2.5,20.6-8.1,32-6.6c1.2,0.2,2.6-0.4,3.9-0.8c7.9-2.7,16.1-2.2,24.2-2.1c2.3,0,4.7,0.6,6.5,2.2
		c4.7,4.1,8.6,8.8,11.5,14.3c2.2,4,2.4,7.7-0.8,11.5c-1.6,2-3.7,4-3.5,6.9c-8,0.1-15.7,1.5-23,5c-5,1.4-9.1,5.9-15,4.1
		c-0.6-0.2-2.2,0.6-1.3,1.2c2.1,1.5,0.7,1.5-0.4,2.2c-2.3,1.3-3.7,5-7.4,2.2c-0.7-0.5-0.7,1.4-0.9,2.3c0,0.3,0,0.6-0.1,1
		c-2.7-0.8-4.9,3.4-7.6,0.7c-1.9-1.9-4.1-1.7-6.3-1.7c-1.3,0-2.7,0-4,0c-3.1,0.1-3.9,1.4-2,4c0,0.3,0,0.6,0,0.9
		c-0.8,2.5-6.4,0.9-4.8,5.5c-3-0.5-4-2.9-2.9-6.7c3.2-11,6.8-21.8,12.5-31.8c1.3-0.6,1.2-1.8,1.3-2.9l0.1-0.1
		c3-3.1,5.7-6.4,7.7-10.2c0.5-1,1.7-2,0.6-3c-1.2-1-3.1-0.1-3.5,0.7c-2.6,3.9-7,6.7-7.8,11.7c-0.4,0.6-0.8,1.2-1.2,1.9
		c-0.3,0.3-0.6,0.6-0.8,0.9c-4.7,7.2-7.8,15.1-11,23c-1.4-3.1-4.1-2.7-6-1.3c-4.6,3.2-10,5.1-13.8,9.6c-2.8,3.3-9.6,2.7-11.6-1.2
		c-1.9-3.6-4.2-7.3-5.2-11.1c-3.4-13-14.1-20.6-21.9-30.3c-1.8-2.2-2.1-2.9-0.8-4.9c5-7.1,5.2-14.7,2.3-22.5c-0.8-2-1-3.3,1.2-4.5
		c1.1-0.6,1.8-1.8,2.7-2.8c0.3-0.3,0.7-0.6,1-1C132.6,346.4,133.4,348.7,135.6,349.5z M199.7,416.6c0.9-1.2,2.2-2.6,2.9-4.3
		c0.4-1.1-0.7-2.4-2-2.1c-2.1,0.4-2.2,2.6-2.9,4.2C197.2,415.5,197.8,416.3,199.7,416.6z"/>
	<path class="st4" d="M261,403.9c-0.2-3,1.8-5,3.5-6.9c3.2-3.8,2.9-7.6,0.8-11.5c-3-5.4-6.8-10.2-11.5-14.3
		c-1.8-1.6-4.1-2.2-6.5-2.2c-8.1-0.1-16.3-0.6-24.2,2.1c-1.2,0.4-2.6,1-3.9,0.8c-11.4-1.5-21.4,4.1-32,6.6
		c-6.8,1.6-12.4-0.9-17.9-3.9c-8.8-4.6-17.4-9.6-26-14.7c-2.9-1.8-7.2-3-6.2-8c12.3-3.6,24.6-3.8,36.8,0.7c0.3,0.1,0.7,0.2,1,0.2
		c11.6-2.2,22.3,3.4,33.5,3.8c5.9,0.2,11.8-1.3,17.7-0.3c4.5,0.7,9.2,0.4,13.6,1.8c2.5,0.8,4.9,1.6,7.7,0.9c4.3-1,8.2,1.4,11.7,3
		c9.2,4.4,19.5,6.9,26.8,14.8c2,2.2,5.3,1.3,8.1,1c2.4,4.9,3.5,10.3,4.9,15.5c1.1,4-0.9,7-3.3,9.9c-1.7,2.1-3.4,4-5.1,6.1
		c-0.6,0.8-1.4,1.6-0.7,2.6c0.7,0.9,1.8,0.8,2.7,0.4c1.5-0.7,2.8-1.7,4.3-2.4c1.2-0.6,2.5-1.6,3.7-0.7c1.2,0.8,1,2.7,0.5,3.7
		c-2.6,5.6-3.7,12-8.9,16.2c-0.1-1-0.3-2.6-1.2-2.4c-3.9,0.7-5.1-2.7-7.6-4.2c-2.8-1.7-3-4.4-4.3-6.6c-0.1-1.4,0.4-2.9-1-4
		c-0.1-1.4,0.4-2.9-1-4c-0.1-1.8,0-3.6-0.6-5.4c-1-2.9-2.5-3.3-5.6-1.2c5,0.2,4.3,4.4,6.2,6.6c0.1,1.4-0.4,2.9,1,4
		c0.1,1.4-0.4,2.9,1,4c0,1.7,0,3.6-2.3,3.7c-2.3,0.1-1.6-2.2-2-3.4c-0.9-2.5-1.6-5.2-2.8-9c-1.4,4.1-0.7,7.1-0.9,9.9
		c-0.1,1.8,0.4,4-2,4.5c-2.2,0.5-3.2-1.4-4.1-3c-1.3-2.4-3.1-4.2-5.4-6.5c-1.2,3.5,1.5,5.6,1.8,8.2c0.1,1.2,1.4,2.6-0.6,3.3
		c-1.3,0.5-2.2-0.6-2.6-1.8c-1.3-4.6-2.4-9.3-3.6-13.9c-0.3-1,0-1.7,1-1.9c1.5-0.2,3.1-1.2,4.6,0.4c1.4,1.4,1.9,3.6,3.9,4.5
		c0.1,0.1,0.3,0.1,0.4,0.2c-0.1-0.1-0.3-0.2-0.4-0.2C264.3,408.1,262.3,406.1,261,403.9z M267.7,417.2c0-2.6,0-4.8,0-7.1
		C267.4,412.3,264.6,414.6,267.7,417.2z M268.5,405.2c0.6-1.4,0.7-2.3-0.1-3.4C267.8,403,267.8,403.9,268.5,405.2z"/>
	<path class="st4" d="M133.3,296.1c-0.3-4.3-3.9-3.9-5.9-2.9c-8.1,4-12.8-1.7-17.9-5.7c-1.9-1.5-4.3-3-4.3-6.6
		c0-1.6-4.5-1.2-6.7-0.3c-3.7,1.5-10.7,0.1-13.1-3c-1.1-1.4-2.1-3.1-3.5-4.1c-2.5-1.9-6.5-3.3-1.4-6.7c-1-9.5,7.9-17.6,3.2-28.1
		c-2.1-4.7-0.4-11.2-0.5-16.8c0-1.4,0.8-3.7-0.9-4c-1.3-0.2-4-1.9-4.6,1.3c-0.3-0.5-0.6-1.1-0.8-1.6c1.8-15,5-29.6,11-43.5
		c4.1-0.5,8.6-0.6,7.3-6.9c2.2-1.4,4.4,0.3,6.6,0.2c1.3-0.1,1.8,1.4,2.1,2.5c0.5,1.5-0.5,2.4-1.7,3.2c-6.3,4.5-5.5,12-8.5,17.7
		c1.9,1.1,2.3,0.2,2.8-0.4c1.3-1.5,3-1.8,4.5-0.9c1.8,1,1.2,3,0.5,4.5c-1.8,3.8-2.6,7.8-3.6,11.9c-0.9,3.7-1.4,6.8,2.8,8.8
		c1.2,0.5,1.5,1.9,1.1,3.1c-1.1,3.5-1.2,6,2.2,9.1c3,2.7-2.4,3.4-3.6,5.3c0.9,2.1,3.2,1.6,4.5,2.8c-7.2,4.7-9.1,12.7-12.4,19.8
		c-2.2,4.7-2,9.7-1.5,14.6c0.8,6.7,5.9,10.1,12.5,8.6c5-1.1,7.8-4.8,9.8-9.1c2.3-5.1,4.2-10.4,6.3-15.7c0.6-0.3,1.1-0.7,1.7-1
		c2.2,4.4,6.5,6,10.3,8.4c1.3,0.8,1.3,2.2,1.4,3.5c0.5,6.6,3.8,10.1,10.2,11.2c2.6,0.5,2.7,2.5,2.8,4.5c-1.8-0.4-3.7-0.9-5,1
		c-0.3,0.5-0.4,1.5-0.2,1.8c1.6,1.5,3-0.4,4.6-0.4c0.5,0,1-0.1,1.5-0.1c4.5-0.1,7.4,4.1,11.9,4.3c2.8,0.1,5.5,1.2,8.2,1.7
		c2.2,0.5,3.6,1.7,3.8,4c-1.8,0.1-3.8-0.4-4,2.4c-0.2,2.4,0.7,4,3,4.3c2.8,0.4,4.4,1.5,3.9,4.5c-0.5,3.1-2.8,2.7-5,2.7
		c-8.3,0.2-16.5-0.6-24-4.7c-1-0.5-1.9-1.7-3.1-0.9c-1.4,0.9-0.8,2.3-0.5,3.6c0.2,0.8,0,1.7,0.4,2.4c2,3.9-0.4,3.7-3,3.3
		c0.4-0.9,0.8-1.7,1.1-2.6c-0.1-4.3-4.3-9.9,3.9-11.6c1.2-0.2-0.6-1.3-1.1-1.8c2-2.6,0.2-2.7-1.7-2.6
		C137.4,291.3,135.7,294.2,133.3,296.1z"/>
	<path class="st2" d="M353.4,247.5c3.4,3,1.8,6.9,1.2,10.1c-3,14.9-10.9,27-22.8,36.5c-7.5,6-16.7,5.1-23.6-1.4
		c-13.2-12.6-24.3-26.9-34.3-42.1c-1-1.6-1.5-4.3-4.5-3.7c-0.4,0.3-0.8,0.6-1,1.1c-0.6,1,0,3.1-2,2.8c-1.8-0.3-0.8-2.2-1.4-3.3
		c-2.7-5.8-1.7-10.4,3.9-13.9c1.1-0.7,1.6-2.5,2.1-3.9c0.8-2.3,1.9-3.1,3.9-1.2c7.9,7.2,16.5,13.4,25.9,18.6c6,3.3,12.2,5.4,18.8,4
		c3.4-0.7,6.4-0.5,9.7-0.2c7,0.5,12.1,6.4,19.4,6.2c1.9-0.1,2.5-0.1,2.2-1.6C350.4,252.3,352.6,250.1,353.4,247.5z"/>
	<path class="st4" d="M329,216c2.6,0.9,4.7,0.9,6-2.2c1.3-3.1,3.4-3.3,6.3-1.1c5.2,4.1,10.4,8.1,15.6,12.2c4.2,3.3,7,8.3,11.5,11.5
		c7.2,5.2,13.8,11.4,21.5,15.7c6.5,3.6,12.2,8.5,19.3,11c3.6,1.3,7.2,1,10.8,0.6c2.5-0.3,4.9-2,5.6-4.5c0.9-3.4,2.2-5.7,5.9-5.1
		c3.9,0.6,8,1.2,9.1,6.2c0.3,1.4-0.2,3.7,2.5,3.6c0,0-0.1,0-0.1,0c-0.1,1.3-0.2,2.6,1.5,3c2.3,4.5,1.4,8.8-0.8,13
		c-1.8-0.4-2.2-1.5-0.9-2.8c0.9-1,1.5-1.9,0.3-2.9c-0.9-0.8-1.9-1.2-3.2-0.7c-1.8,0.6-3.3,1.3-4.7,2.7c-5,4.7-11.2,6.3-17.7,5.6
		c-12.4-1.3-22.6-7.2-31.7-15.6c-2.2-2-3.8-5.7-7.8-5.2c-0.1-1-0.4-1.9-1.6-1.8c-0.2,0-0.6,0.4-0.6,0.5c0.3,1.2,1.3,1.2,2.2,1.3
		c-0.3,2.8,1.6,4,3.6,5.4c2.8,2,6.2,4.1,4.4,8.6c-10.2-8.9-19.1-19-28.2-29c-6.7-7.3-14.7-13.5-22.2-19.9c-3-2.6-6.5-4.6-7.8-8.7
		C328.2,217,328.6,216.5,329,216z"/>
	<path class="st4" d="M353.4,247.5c-0.8,2.6-3,4.8-2.5,7.9c0.2,1.5-0.3,1.5-2.2,1.6c-7.3,0.2-12.4-5.7-19.4-6.2
		c-3.3-0.3-6.3-0.5-9.7,0.2c-6.6,1.4-12.8-0.7-18.8-4c-9.4-5.2-18-11.4-25.9-18.6c-2-1.9-3.1-1.1-3.9,1.2c-0.5,1.4-1,3.2-2.1,3.9
		c-5.6,3.5-6.7,8.1-3.9,13.9c0.5,1.1-0.4,3,1.4,3.3c2,0.3,1.4-1.8,2-2.8c0.3-0.4,0.7-0.7,1-1.1c1.3,5.2,4.8,9.3,7.1,14.1
		c-2.5,0.5-3.3-1.7-4.5-3.7c-2.8,5.2-5,10.4-11.9,8.8c-3-6.6-4.4-14.2-4.3-20.9c0.1-7.2-1.8-14.4-0.5-21.4c0.9-4.8,1.8-9.7,2.7-14.6
		c0.5-2.6,2-3.5,4.2-3c4.7,1,9.7,1.7,10.1,8.2c0.1,1.1,0.8,2.1,2,2.6c12.1,5.7,22.4,14.7,34.9,19.8c3.1,1.3,6,1.7,9.1,0.7
		c2.9-0.9,5.6-2.2,8.9-1.5c2.4,0.5,3.9-1.2,2.9-3.6c-0.8-2.1,0.1-3.9,0.1-5.8c6.7,6,13.7,11.5,19.9,18.1
		C349.1,247.8,350.2,248.8,353.4,247.5L353.4,247.5z M269.7,254.8c-2.5,2.2-2.5,2.2-1.3,5.2C268.9,257.9,269.3,256.4,269.7,254.8z"
		/>
	<path class="st4" d="M43.9,255.2c-4.7-8.2-5.9-15.9,1.1-24c9-10.3,19.3-19.4,28.7-30.9c-0.8,12.8-1.6,24.3-2.3,35.8
		c-0.1,1.6-0.1,3.4,0.2,5c1,4.9,0.8,9.5-3.4,13c-2.8,1.3-5.7-0.4-8.6,0.5c-3.3,1-6.6,0.9-9.7-1.6C47.5,251.2,44.5,250.7,43.9,255.2z
		"/>
	<path class="st2" d="M386,275c1.7-4.5-1.6-6.6-4.4-8.6c-2-1.4-3.9-2.6-3.6-5.4l0,0c4.1-0.5,5.6,3.2,7.8,5.2
		c9.1,8.3,19.3,14.3,31.7,15.6c6.5,0.7,12.8-0.9,17.7-5.6c1.4-1.3,2.9-2.1,4.7-2.7c1.3-0.4,2.3,0,3.2,0.7c1.2,1,0.6,1.9-0.3,2.9
		c-1.2,1.3-0.9,2.4,0.9,2.8c-3.7,5.4-7.5,10.7-11.2,16.1c-2.2-0.1-2.6,1.2-2.5,3c0,0,0,0,0,0c-0.9,0.4-1.1,1.2-1,2c0,0,0,0,0,0
		c-0.3,0.3-0.7,0.7-1,1c0,0,0,0,0,0c-4.7-0.4-9,2.8-13.8,2c-7.7-7.6-15.7-15-22.4-23.5C390.1,278.4,386.6,278.2,386,275z"/>
	<path class="st4" d="M286.6,346.6c2-3.2-1.3-7.7,2.3-10.6c6.5,0.8,12.5-1.5,18.2-3.6c6.6-2.4,12.9-6.7,14.4-14.4
		c0.7-3.4,1.9-3.5,4.4-3c1.8,3.9,6.5,6.1,5.2,11.9c-1.2,5.1-3.9,9-8.2,10.3c-8.8,2.7-17.2,6.4-25.7,9.7c-1.2,0.5-2.7,1-1.9,2.1
		c3.5,5.2,0.1,9.5-1.5,14C291.1,357.7,287.4,352.8,286.6,346.6z"/>
	<path class="st5" d="M305.4,423.4c1.1-10.2-1.2-20.1-2.3-30.1c-0.5-4.5-3-8.4-4.2-12.7c-0.3-1.1-1.2-2.1-0.2-3.2
		c1-1,2.3-0.7,3.2-0.1c5.4,3.5,11.4,6.1,16,10.8c2.3,2.3,2.7,4.5,0.1,6.8c-1.1,1-2.1,2.2-3,3.3c-4.6,5.4-4.8,7.3-1,13.2
		c0.6,1,1.3,1.9,1.8,3c3.5,6.9,1.5,11.7-6,13.8C307.4,429,305.3,426.8,305.4,423.4z"/>
	<path class="st3" d="M112,405.4c-0.3,4.6,0.3,8.8,3.8,12.3c1.5,1.5,3.4,3.5,1,6c-0.9,1-0.2,1.6,0.8,2.2c3.9,2.4,3.1,5.7,0.6,8.2
		c-1.9,2-4.7,4.5-7.5,0.5c-0.7-1-1.7-0.6-2.7-0.3c-7.5,2.3-9.6,6-7.4,13.7c0.8,2.7,1.4,5.4,2.1,8.1c0.4,1.4,0.9,3-1.3,3.6
		c-0.1-0.4-0.2-0.8-0.3-1.2c-0.1-1,0.1-2.1-1.1-2.8c-1.4-8-2.3-16-1.5-24.1c0.1-0.4,0.3-0.7,0.4-1.1c0.2-2.2,0.7-4.3,2.1-6.1
		c0.3,1.8-0.4,4.2,2.7,4.1c1.9-0.1,3.3-0.9,3.6-2.7c0.3-2.6-1.8-3.1-3.8-3.5c-0.3-0.1-0.5-0.4-0.7-0.6
		C107.5,417.4,110.4,411.8,112,405.4z"/>
	<path class="st2" d="M43.9,255.2c0.6-4.5,3.6-4,6-2.2c3.2,2.4,6.5,2.5,9.7,1.6c2.9-0.9,5.8,0.8,8.6-0.5c-1.2,4.9-4.4,8.8-6.9,13.1
		c-0.9,1.5-2.4,2.2-4.3,1.8c-0.4-0.3-0.7-0.6-1.1-0.9c0,0,0.1,0,0.1,0c-0.3-0.4-0.7-0.7-1-1.1c0,0,0,0,0,0c-0.4-0.3-0.7-0.7-1.1-1
		c0,0,0,0.1,0,0.1c-0.3-3.1-3.1-3-5.1-4c0,0,0.1,0,0.1,0c-0.5-1.5-0.9-3.1-2.9-3.1c0,0,0,0,0,0c0.1-1.8-0.1-3.4-2.1-4L43.9,255.2z"
		/>
	<path class="st4" d="M122,320c-2.6-1.2-4.6,0.1-4.8,2.5c-0.3,3-2.2,4.7-3.9,6.6c-1.3,1.6-2.9,3-4.7,0.3c-0.5-0.7-1.5-1.5-2-0.8
		c-3.1,4.1-4.9,0.8-7.1-0.9c0,0,0.1,0,0.2,0c0.2,0,0.5-0.1,0.7-0.1c-0.2-0.2-0.3-0.4-0.5-0.6c2.2-4.8,4.4-9.5,9.1-12.5
		c0.7-0.4,1.3-0.9,2-1.4c2.4,4.4,8.1,1.8,10.9,5.4C122.1,318.8,122,319.5,122,320z"/>
	<path class="st2" d="M329,216c-0.4,0.5-0.8,0.9-1.2,1.4c0,0,0.1-0.2,0.1-0.2c-0.3-0.4-0.7-0.7-1-1.1c0,0,0.1,0.1,0.1,0.1
		c-0.3-0.4-0.7-0.7-1-1.1c0,0,0,0.1,0,0.1c-0.1-0.6-0.3-0.9-0.8-0.4c-1.6-1.2-2.8-2.7-3.3-4.7c0.7-4.7,1.4-9.5,2.1-14.2c0,0,0,0,0,0
		c2.5-2.1,2.9-5,3-8.1c0,0-0.1,0-0.1,0c3.9-1.7,2.1-6.7,5.2-8.9c-0.7,7.9-3.2,15.4-5.3,23c-1,3.5-2.4,6.3,0.8,9.4
		C328.4,212.4,328.5,214.4,329,216z"/>
	<path class="st2" d="M95,167.1c1.3,6.2-3.2,6.3-7.3,6.9c-0.7,0-1.3-0.1-2-0.1c-2.3,0-5.9-0.2-6.1-1.7c-0.3-2.7,3-3.9,5.3-5.1
		c1.6-0.8,3.3-1.4,5-2.1C90.6,168.1,93.2,166.7,95,167.1z"/>
	<path class="st3" d="M414.2,304c4.8,0.8,9-2.4,13.8-2c-1,1.3-1.9,2.7-3.1,3.8C419.9,311,418.1,310.7,414.2,304z"/>
	<path class="st5" d="M22.4,270.7c-3-1.1-3.9,5.1-6.7,1.9c-1-1.1-1-3.6,0.8-5C19.9,265.2,20.3,269.7,22.4,270.7z"/>
	<path class="st5" d="M102.8,422.1c0.2,0.2,0.5,0.6,0.7,0.6c2,0.4,4.1,0.9,3.8,3.5c-0.2,1.8-1.7,2.7-3.6,2.7
		c-3.2,0.1-2.5-2.3-2.7-4.1C101.3,423.6,100.5,421.8,102.8,422.1z"/>
	<path class="st1" d="M187.3,118.3c-1,4.5-6.2,1-8.2,4.1c-0.4,0.6-1-2.4-2.1-3.3C180.3,118,183.7,117.6,187.3,118.3z"/>
	<path class="st4" d="M323.8,195.9c-0.7,4.7-1.4,9.5-2.1,14.2C318.6,204.9,321.3,200.4,323.8,195.9z"/>
	<path class="st4" d="M332,179c-3.1,2.2-1.3,7.2-5.2,8.9c0.9-4.4,2.3-8.6,4.6-12.4c0.2,0.2,0.4,0.4,0.6,0.5C332,177,332,178,332,179
		L332,179z"/>
	<path class="st4" d="M333.5,170.9c3.6,2.4,1.8,4.3-0.5,6.1c-0.3-0.3-0.7-0.7-1-1c-0.2-0.2-0.4-0.4-0.6-0.5
		C331.8,173.9,331.8,172,333.5,170.9z"/>
	<path class="st4" d="M304.8,189.2c0.9-0.2,1.8-0.4,2.3-1.3c1.9,2,2.2,4.6,2.2,7.6C307.8,193.4,306.3,191.3,304.8,189.2z"/>
	<path class="st1" d="M212.6,121c-4.3,0.2-8.6,0.3-12.6-1.8C204.3,118.8,208.6,118.6,212.6,121z"/>
	<path class="st3" d="M318,399.8c-0.4,2.4-0.8,4.8-1.1,7.2C313.5,404.1,314.8,401.8,318,399.8z"/>
	<path class="st4" d="M326.8,187.9c-0.1,3-0.6,5.9-3,8.1C323.8,192.9,324.5,190.1,326.8,187.9z"/>
	<path class="st3" d="M112.9,398.9c1.6,1.9,2.3,3.7-0.7,5C112,402.2,111.8,400.5,112.9,398.9z"/>
	<path class="st4" d="M48.8,262.2c2,1,4.8,0.9,5.1,4C51.7,265.5,49.5,264.8,48.8,262.2z"/>
	<path class="st4" d="M293.7,363.2c2.3,0,3.3,1.6,4.1,3.4C295.2,367.1,294,365.7,293.7,363.2z"/>
	<path class="st2" d="M353.3,247.5c-3.1,1.3-4.1,0.4-3.1-2.8C351.3,245.5,352.7,246,353.3,247.5z"/>
	<path class="st4" d="M43.9,255.1c2,0.6,2.3,2.2,2.1,4C44.5,258.1,43.9,256.8,43.9,255.1z"/>
	<path class="st4" d="M46,259c2,0.1,2.4,1.6,2.9,3.1C47.2,261.8,46.3,260.7,46,259z"/>
	<path class="st3" d="M430,299.1c-0.2-1.8,0.3-3.1,2.5-3C431.9,297.2,431.5,298.6,430,299.1z"/>
	<path class="st1" d="M173.4,119.9c-1.4,1.6-3.2,1.2-4.9,1.1C169.8,119.4,171.7,119.9,173.4,119.9z"/>
	<path class="st4" d="M303,187c1.3,0.1,2,0.8,1.9,2.1C303.8,188.8,303.3,188,303,187z"/>
	<path class="st2" d="M107,384c-1.4,0-2.1-0.6-2-2l0.1-0.1c0.3,0,0.7,0,1,0.1c0,0-0.1-0.1-0.1-0.1C106.3,382.6,106.7,383.2,107,384
		L107,384z"/>
	<path class="st3" d="M444.5,266.9c-1.7-0.4-1.6-1.7-1.5-3C444.4,264.5,444.4,265.7,444.5,266.9z"/>
	<path class="st2" d="M100.1,455.9c1.1,0.6,1,1.7,1.1,2.8C99.7,458.2,100.6,456.8,100.1,455.9z"/>
	<path class="st2" d="M115.9,488.4c-0.7,0.3-1.1,0.6-1.5,0.5c-0.3,0-0.6-0.4-0.9-0.7c0.3-0.1,0.5-0.4,0.8-0.4
		C114.7,487.9,115.1,488.1,115.9,488.4z"/>
	<path class="st3" d="M429,301c-0.1-0.9,0.1-1.6,1-2C430.2,300,429.9,300.7,429,301z"/>
	<path class="st2" d="M105,382c-0.5-0.2-1-0.4-1.5-0.7c0.4-0.6,0.9-0.5,1.5-0.3c0,0-0.1-0.1-0.1-0.1C105,381.2,105,381.6,105,382
		L105,382z"/>
	<path class="st1" d="M168.2,120.8c-0.6,1-1.3,1.4-2.3,0.3C166.7,121,167.5,120.9,168.2,120.8z"/>
	<path class="st1" d="M176.1,119.1c-0.7,0.9-1.6,0.9-2.6,0.8C174.1,118.9,175,119,176.1,119.1z"/>
	<path class="st4" d="M53.9,266c0.4,0.3,0.7,0.7,1.1,1C54.7,266.7,54.3,266.4,53.9,266z"/>
	<path class="st2" d="M99.9,327c0.2,0.2,0.3,0.4,0.5,0.6c-0.2,0-0.5,0.1-0.7,0.1C99.6,327.4,99.7,327.1,99.9,327z"/>
	<path class="st4" d="M55,267c0.3,0.4,0.7,0.7,1,1.1C55.7,267.8,55.3,267.4,55,267z"/>
	<path class="st3" d="M316.9,407c0.4,0.5,0.7,1,1.1,1.5C317.6,408,317.2,407.5,316.9,407z"/>
	<path class="st4" d="M55.9,268.1c0.4,0.3,0.7,0.6,1.1,0.9C56.4,269,56.1,268.6,55.9,268.1z"/>
	<path class="st3" d="M428,302.1c0.3-0.3,0.7-0.7,1-1C428.9,301.7,428.6,302,428,302.1z"/>
	<path class="st4" d="M325.8,215.1c0.3,0.4,0.7,0.7,1,1.1C326.2,216.1,325.9,215.7,325.8,215.1z"/>
	<path class="st4" d="M325,214.9c0.5-0.5,0.8-0.2,0.8,0.4C325.5,215.3,325.2,215.2,325,214.9z"/>
	<path class="st2" d="M99,430.8c-0.1,0.4-0.3,0.7-0.4,1.1C98.7,431.5,98.8,431.1,99,430.8z"/>
	<path class="st4" d="M329.7,226.6c-0.3,0-0.6-0.1-0.9-0.1c0.3,0,0.6-0.1,0.9-0.1C329.7,226.4,329.7,226.6,329.7,226.6z"/>
	<path class="st4" d="M326.8,216.1c0.3,0.4,0.7,0.7,1,1.1C327.1,217.2,326.8,216.8,326.8,216.1z"/>
	<path class="st0" d="M230.9,294.1c-2.2,3.6-3,8.1-6.4,11.1c-7.8,6.9-21.5,2.3-24.3-8.2c-0.3-1.1-0.5-2.2-0.8-3.4
		c0-10.9,3.1-20.8,9.2-29.8c1-1.5,1.7-3.2,2.5-4.8c2-1,4-2,6-3c0.7-0.4,1.3-0.8,2-1.2c0.7,0,1.4,0,2.1,0.1
		c9.4,2.2,11.6,4.7,12.9,15.2c0.2,1.9,0.2,3.9,0.3,5.9C234.6,282.3,232.3,288.1,230.9,294.1z M218,259.3c-2.6,0.1-3.2,1.8-3.1,3.8
		c0.1,2.4,1.2,4.1,3.9,4.2c2.1,0.1,3.1-1.4,3-3.1C221.7,261.7,220.7,259.6,218,259.3z"/>
	<path class="st0" d="M119.7,253c-2.1,5.2-4,10.5-6.3,15.7c-1.9,4.3-4.8,8-9.8,9.1c-6.6,1.5-11.7-1.9-12.5-8.6
		c-0.6-4.9-0.8-9.9,1.5-14.6c3.4-7.1,5.2-15.1,12.4-19.8c2.9-3.4,6.8-4.8,10.9-3.5c4.3,1.4,4.8,5.4,4.7,9.4c0,2.3,0.2,4.6,0.3,6.9
		c-0.9,1.4-2.5,2.7-1,4.7C119.7,252.5,119.6,252.7,119.7,253z M113.9,243.1c2.3,0,4.5-0.6,4.9-3.2c0.3-1.9-1.9-2.6-3-2.3
		c-1.9,0.5-4.7,0.4-5,3.3C110.6,243.1,112.4,243.1,113.9,243.1z"/>
	<path class="st4" d="M230.9,294.1c1.4-6,3.8-11.8,3.4-18.1c2.9-0.9,6.3-3.1,6.9,2.5c0.1,1.2,1.6,1.9,2.1,1c1.7-2.9,5.7-2.1,7.5-5.3
		c2.2-3.8,5.5-1.2,8.3-0.2c-0.9,4.2-3.9,7.6-4.6,12c-0.4,2.4-3,2.9-5,3.7c-3.2,1.2-6.8,1.4-9.2,4.4c-1.2,1.4-2.9,0.9-3.9-0.4
		C234.2,291.3,232.5,292.3,230.9,294.1z"/>
	<path class="st1" d="M302.1,195.7c0.8,6.2,0.6,12.7,6.7,16.8c1.7,1.1,0.6,2.7-0.2,4c-1,1.5-2.3,1.9-3.8,0.8
		c-4.9-3.7-9.5-7.7-12.7-12.8c-2.1-3.4-5.4-6.3-6-10.6c-0.2-1.8-1.3-4.5,1-5.3c2.3-0.8,4.4,0.1,6.1,2.7
		C295.2,194,296.9,198.5,302.1,195.7C302.1,195.7,302.1,195.7,302.1,195.7z"/>
	<path class="st4" d="M216.9,256c-2,1-4,2-6,3c-1.6-0.4-3.5-0.9-4.8,0.2c-2.9,2.4-4,0.1-5.3-1.8c-1.5-2.2-0.5-4,1.5-5
		c3.2-1.5,4.9-4.8,9-5.8c5.7-1.4,8.8,2.2,13.1,3.9c-1.2,1.5-2.3,2.9-3.3,4.2c-0.7,0-1.4,0-2.1-0.1c-1-0.8-2.2-2.1-3.2-1.2
		C214.5,254.7,216.1,255.4,216.9,256z"/>
	<path class="st0" d="M147,282c-0.5,0-1,0.1-1.5,0.1c-1.6,0-3,1.9-4.6,0.4c-0.3-0.3-0.2-1.4,0.2-1.8c1.3-1.9,3.2-1.4,5-1
		C146.9,280.2,147.3,281,147,282z"/>
	<path class="st1" d="M197.5,119c-1.6,1.3-3.5,1.3-6.7,0.4c3.1-0.3,4.8-0.5,6.6-0.6C197.3,118.7,197.5,119,197.5,119z"/>
	<path class="st4" d="M119.8,252.3c-1.4-2,0.1-3.3,1-4.7C120.5,249.1,120.2,250.7,119.8,252.3z"/>
	<path class="st4" d="M130,346c-0.9,1-1.6,2.2-2.7,2.8c-2.2,1.2-2,2.4-1.2,4.5c2.9,7.8,2.7,15.5-2.3,22.5c-1.4,1.9-1,2.7,0.8,4.9
		c7.7,9.7,18.4,17.2,21.9,30.3c1,3.7,3.3,7.4,5.2,11.1c2,3.9,8.8,4.5,11.6,1.2c3.8-4.4,9.2-6.4,13.8-9.6c1.9-1.4,4.6-1.8,6,1.3
		c-0.4,2.7-0.9,5.4-1.3,8.1c-0.8,0.7-0.7,1.5-0.6,2.4c0.1,2.8,0.1,5.6,0.2,8.5c-2.6-2.1-1.7-5.4-1.7-7.9c-0.1-3.8-2.1-3.8-3.8-2.6
		c-4,2.8-9.2,3.4-12.9,6.7c0.6,1.4,1.7,0.6,2.6,0.9c2.4,0.7,4.1,2.2,4.5,4.7c0.6,3.4-1.9,5.4-4.3,6.6c-2.5,1.2-4,2.1-2.7,5.1
		c0.4,0.9,0,2.1-1.3,2.3c-1.2,0.1-1.8-0.9-2.1-1.8c-1.6-5.2-3.5-10.4-3.5-15.9c0.6-0.1,1.3-0.2,1.9-0.3c-0.1-0.2-0.2-0.4-0.3-0.6
		c-0.6,0.3-1.1,0.6-1.7,0.9c-7.5-2.5-11.6-8.8-11.3-16.9c0.1-3.1-1.5-5.8-4.1-7.6c-2.8-1.9-5.1-4.2-7-7c-0.7-1-1.8-2-3-2.6
		c-6.3-3-9.5-8.3-11.5-14.7c-0.4-1.5,0.4-3.6-1.9-4.1c-2.3-0.5-4.2,0.1-5.4,2.8c-2.1-8.5-9.3-14.8-8.2-24c-5.8-4.8-5.3-8.4,1.9-10.8
		c0.2-0.1,0.2-0.6,0.3-0.9c2.2-6.7,4.1-7.4,11.2-4.5C121.4,343.3,125.7,344.5,130,346z M162.4,440.6c2-0.7,3.7-1.5,3.6-3.8
		c-0.1-2.1-1.4-2.8-3.3-2.8c-1.6,0-2.8,0.6-2.4,2.3C160.5,437.9,160.4,439.9,162.4,440.6z"/>
	<path class="st0" d="M181.3,433.9c-0.1-2.8-0.1-5.6-0.2-8.5c0.6-0.7,0.9-1.5,0.6-2.4c0.4-2.7,0.8-5.4,1.3-8.1
		c3.1-7.9,6.3-15.8,11-23c0.3-0.3,0.6-0.6,0.8-0.9c0.4-0.6,0.8-1.2,1.2-1.9c1.1,0.1,2.2-0.1,3.1,0.8c0,0-0.1,0.1-0.1,0.1
		c-1.4,0.5-1.2,1.7-1.3,2.9c-5.7,10-9.3,20.8-12.5,31.8c-1.1,3.8,0,6.2,2.9,6.7c0,0,0.2-0.4,0.2-0.4c-0.1,0.8,0.4,1.1,1.1,1.2
		c0.7,0.8,1.6,0.7,2.5,0.5c0.7,0.1,1.4,0.1,2,0.2c0.5,3.5,1.2,6.6,5.9,6c3.3-0.4,7-2.3,8.9,2.6c0.4,1,2.5,0.7,3.7,0.3
		c6-1.8,12.1-3.4,17.6-6.5c7.1-4,12.2-10.3,18.1-15.7c0.3-0.4,0.6-0.7,1-1.1c1,0,3.6-2.3,2.2,1.1c-1.5,4.1-3.5,7.7-8.2,9.7
		c-4.5,1.9-7.1,6.7-11.4,9.3c-7.6,4.6-14.9,9.4-24.4,7.3c-4-0.9-7.7-3.5-12.2-2.3c-0.3,0.1-0.8-0.1-0.9-0.3
		C191.4,438.1,184.5,438.6,181.3,433.9z"/>
	<path class="st4" d="M249.2,418.5c-0.3,0.4-0.6,0.7-1,1.1c-1.3-3.2-3.7-6.3-6.9-6.1c-7.9,0.7-3.9,7.6-4.7,11.9
		c-3.6-0.8-3.4-4-5.5-5.9c0,3-1.8,3.1-3.9,3.6c-3.8,1-8.4-3.6-11.6,1.6c-0.1,0.2-0.9-0.2-1.4-0.1c-3.7,0.3-7.5,0.2-10.9,0.8
		c-4.9,0.8-4.5-1.4-4.4-4.4c2.3,0,4.4-0.2,6.3,1.7c2.7,2.7,5-1.6,7.6-0.7c0.2,0.1,0.7,0.3,0.7,0.3c0.4-0.7-0.1-1-0.6-1.3
		c0.2-0.9,0.2-2.8,0.9-2.3c3.7,2.8,5.1-0.8,7.4-2.2c1.2-0.7,2.6-0.7,0.4-2.2c-0.9-0.6,0.7-1.4,1.3-1.2c5.9,1.8,10-2.7,15-4.1
		c1.4,1.6,3.4,0.7,5.1,1C247.6,410.8,249.7,413.7,249.2,418.5z"/>
	<path class="st3" d="M239.8,463.7c-0.5,1.8-1.3,4.1-2.4,3.8c-5.6-1.7-11.9,1-17.3-3.1c-2.3-1.7-2.6-3.5-1.7-5.4
		c0.9-1.9,2.9-3.6,5.2-2.9c4.9,1.6,9.6,3.6,14.4,5.6C238.8,462,239.3,463.1,239.8,463.7z"/>
	<path class="st4" d="M153,448.6c0,3.2-2.2,4.5-4.7,5.7c-2.6,1.2-4.4,0.2-6.1-1.7c-5.6-6.4-3.6-15.5,3.8-17.2
		c1.1-0.3,2.4-0.9,2.7,0.9c0.2,1.3-1,1.4-2,1.6c-0.8,0.1-1.7,0.2-2.4,0.6c-1.5,0.9-1.5,2.5-1.2,4c0.5,1.9,1.7,0.7,2.8,0.5
		C150.4,442.1,153.1,444.3,153,448.6z"/>
	<path class="st4" d="M114,445.3c-1.9,2.9-6.5,1.6-5.9,5.8c0.2,1.1-0.3,2.2,1.8,1.3c3.7-1.6,6.5,0.1,7.8,3.8c1.1,3.2-0.4,5.8-3,7.2
		c-3.2,1.7-6.2,0.3-8.2-2.6c-2.6-3.8-3.3-8-1.1-12.1C107,445.5,109.9,444.6,114,445.3z"/>
	<path class="st4" d="M181.9,443.1c0.1,1.2,0.1,2.3-1.2,2.6c-1.3,0.4-2.2,0-2.6-1.5c-1.3-4.5-2.6-8.9-3.9-13.4
		c-0.3-1.2-0.2-2.4,1.4-2.7c1.4-0.3,2.4,0.4,2.5,1.8C178.4,434.6,180.9,438.7,181.9,443.1z"/>
	<path class="st0" d="M107.1,383.9c-0.4-0.7-0.7-1.3-1.1-2C107,382.2,108.4,382.3,107.1,383.9z"/>
	<polygon class="st0" points="103.1,378.9 102.8,378.8 103,379 	"/>
	<path class="st0" d="M105.1,381.9c0-0.3,0-0.7-0.1-1c0.4,0.4,0.7,0.7,1.1,1.1C105.7,382,105.4,382,105.1,381.9z"/>
	<path class="st0" d="M139.9,307.2c-0.4,0.9-0.8,1.7-1.1,2.6c0,0,0.1,0.1,0.1,0.1c-3.2,3.1-2.6,6.1,0.1,9.2c0.6,1.5,1.9,3.2-0.5,4.1
		c-1.7,0.7-2.2-0.9-2.8-2.1c-2.1-3.7-3.9-7.3-1.4-11.6c1.6-2.8-1.8-4.8-1.5-7.4c0.1-2,0.3-4,0.4-5.9c0,0,0.1,0,0.1,0
		c2.4-1.9,4.2-4.8,7.7-5c1.9-0.1,3.7,0,1.7,2.6C134.8,297.6,134,301.5,139.9,307.2z"/>
	<path class="st5" d="M237.7,312.1c-0.4,1.9-1.9,2.4-3.6,2.6c-0.9,0.1-1.7-0.5-1.2-1.5c0.7-1.4,0.8-3.5,2.8-3.5
		C236.9,309.6,237.6,310.7,237.7,312.1z"/>
	<path class="st4" d="M139,319c-2.7-3-3.3-6.1-0.1-9.2C137.8,312.9,139.8,315.9,139,319z"/>
	<path class="st4" d="M133.2,296.1c-0.1,2-0.3,4-0.4,5.9C130.1,300.3,130.3,298.3,133.2,296.1z"/>
	<path class="st5" d="M181.7,199c-1.5-0.1-2.7-0.5-2.3-1.7c1-2.5,2.6-4.6,5.5-5c1.1-0.2,2.3,0.6,1.7,1.7
		C185.4,196.1,184.2,198.6,181.7,199z"/>
	<path class="st3" d="M164.4,127.8c0.1,0,0.3,0.1,0.3,0.1c0,0.1-0.1,0.2-0.1,0.4c-0.1,0-0.3-0.1-0.3-0.1
		C164.3,128,164.4,127.9,164.4,127.8z"/>
	<path class="st5" d="M366.3,180.5c-0.4,1.3-0.9,2.6-2.3,3.1c-1.4,0.5-2.8,0.3-3.4-1.1c-0.9-2-1.4-3.4-3.5-0.7
		c-1.3,1.6-3.6,2-5.1-0.2c-1.3-1.9-0.3-3.4,1.4-4.6c2.3-1.6,4.5-4.2,6.8-0.1c0.8,1.5,2.2,1.1,3.5,1.3
		C365.1,178.3,366.3,178.7,366.3,180.5z"/>
	<path class="st2" d="M332,176c0.3,0.3,0.7,0.7,1,1c-0.1,0.8-0.2,1.5-1,2C332,178,332,177,332,176z"/>
	<path class="st3" d="M326,315c-2.5-0.5-3.7-0.4-4.4,3c-1.5,7.7-7.8,12-14.4,14.4c-5.7,2.1-11.8,4.4-18.2,3.6
		c0.1-8.8,5.7-14.8,10.7-21.2c0.9-1.2,1.8-2.2,2.5-3.6c1.8-3.9,9-6.5,12.7-4.1C318.6,309.5,322.8,311.5,326,315z"/>
	<path class="st2" d="M199,420.9c-0.1,3-0.5,5.2,4.4,4.4c3.4-0.6,7.3-0.5,10.9-0.8c0.5,0,1.3,0.3,1.4,0.1c3.2-5.3,7.8-0.6,11.6-1.6
		c2.1-0.6,3.9-0.6,3.9-3.6c2.1,1.9,1.9,5.2,5.5,5.9c0.8-4.2-3.2-11.2,4.7-11.9c3.2-0.3,5.6,2.8,6.9,6.1c-5.9,5.4-11,11.7-18.1,15.7
		c-5.5,3.1-11.6,4.7-17.6,6.5c-1.2,0.4-3.3,0.7-3.7-0.3c-1.9-4.9-5.6-3.1-8.9-2.6c-4.7,0.6-5.4-2.6-5.9-6c-1-3.3-3.7-1.4-5.6-1.8
		c0,0-0.2,0.4-0.2,0.4c-1.6-4.6,4-3,4.8-5.5c1.5-0.5,3.9,1.2,4.5-1.5c0.2-1-0.7-2.2-2.1-2.4c-2.2-0.2-2.4,1.3-2.4,2.9
		c-1.9-2.6-1.1-3.9,2-4C196.3,420.9,197.7,420.9,199,420.9z"/>
	<path class="st2" d="M199.1,390c-0.8-1-2-0.7-3.1-0.8c0.8-5.1,5.2-7.8,7.8-11.7c0.5-0.7,2.4-1.7,3.5-0.7c1.2,1-0.1,2-0.6,3
		C204.8,383.5,202.2,386.9,199.1,390z"/>
	<path class="st5" d="M199.7,416.6c-1.9-0.3-2.5-1.2-2-2.2c0.7-1.5,0.8-3.8,2.9-4.2c1.3-0.3,2.4,1,2,2.1
		C201.9,414,200.6,415.4,199.7,416.6z"/>
	<path class="st4" d="M193,425c0-1.6,0.2-3.1,2.4-2.9c1.4,0.1,2.3,1.3,2.1,2.4c-0.6,2.7-2.9,1-4.5,1.5C193,425.6,193,425.3,193,425z
		"/>
	<path class="st2" d="M197.8,393c0-1.1-0.2-2.4,1.3-2.9C199,391.2,199.1,392.4,197.8,393z"/>
	<path class="st2" d="M213,420.9c0.5,0.3,1,0.6,0.6,1.3c0,0-0.4-0.2-0.7-0.3C213,421.6,213,421.3,213,420.9z"/>
	<path class="st2" d="M194.8,391c-0.3,0.3-0.6,0.6-0.8,0.9C194.3,391.6,194.6,391.3,194.8,391z"/>
	<path class="st2" d="M277,408c-1.9-2.2-1.2-6.4-6.2-6.6c3.2-2,4.6-1.6,5.6,1.2C277,404.4,276.9,406.1,277,408L277,408z"/>
	<path class="st2" d="M267.7,417.2c-3.2-2.6-0.3-4.8,0-7.1C267.7,412.4,267.7,414.6,267.7,417.2z"/>
	<path class="st2" d="M268.5,405.2c-0.6-1.3-0.6-2.2-0.1-3.4C269.2,402.9,269.1,403.8,268.5,405.2z"/>
	<path class="st2" d="M279,416c-1.4-1.1-0.9-2.6-1-4c0,0,0,0,0,0C279.4,413,278.9,414.6,279,416C279,415.9,279,416,279,416z"/>
	<path class="st2" d="M277,407.9c1.4,1.1,0.9,2.6,1,4c0,0,0,0,0,0C276.6,410.9,277.1,409.3,277,407.9C277,408,277,407.9,277,407.9z"
		/>
	<path class="st2" d="M264,410.9c0.1,0.1,0.3,0.2,0.4,0.2C264.2,411.1,264.1,411,264,410.9C264,411,264,410.9,264,410.9z"/>
	<path class="st3" d="M139.9,307.2c-6-5.7-5.2-9.6,2.8-13.4c0.6,0.6,2.3,1.6,1.1,1.8C135.6,297.3,139.8,302.9,139.9,307.2z"/>
	<path class="st2" d="M377.9,261c-0.9-0.1-1.9-0.1-2.2-1.3c0-0.1,0.4-0.5,0.6-0.5C377.6,259.1,377.8,260,377.9,261
		C377.9,261,377.9,261,377.9,261z"/>
	<path class="st2" d="M269.7,254.8c-0.4,1.6-0.8,3.1-1.3,5.2C267.2,257,267.2,257,269.7,254.8z"/>
	<path class="st2" d="M68.7,36.3c2.2-2.7,4.6-5.2,7.7-7c6.8-4,12.3-4.1,17.1-0.2c5.9,4.8,7.1,11.1,4.7,18.7
		c-4.7,15-16.4,22.1-29.6,27.7c-2.7,1.2-5.3,0-7.6-1.3c-9.1-5.2-16.7-12-22.2-21c-5.8-9.6-3.5-21.9,5-26.3c6.6-3.4,14-2,19.5,3.6
		C64.5,32.9,64.5,36.5,68.7,36.3z"/>
	<path class="st1" d="M68.7,36.3c-4.2,0.2-4.2-3.3-5.4-5.9C66.9,30.7,66.9,34.3,68.7,36.3z"/>
	<path class="st5" d="M218,259.3c2.7,0.3,3.6,2.4,3.8,4.8c0.1,1.8-0.8,3.2-3,3.1c-2.7-0.1-3.7-1.8-3.9-4.2
		C214.9,261.1,215.4,259.5,218,259.3z"/>
	<path class="st3" d="M216.9,256c-0.8-0.6-2.5-1.2-1.2-2.4c1-0.9,2.2,0.4,3.2,1.2C218.3,255.2,217.6,255.6,216.9,256z"/>
	<path class="st5" d="M113.9,243.1c-1.5-0.1-3.3-0.1-3.1-2.2c0.3-2.9,3.1-2.8,5-3.3c1.2-0.3,3.3,0.4,3,2.3
		C118.5,242.5,116.2,243.1,113.9,243.1z"/>
	<path class="st2" d="M162.4,440.6c-1.9-0.7-1.9-2.7-2.2-4.3c-0.3-1.7,0.9-2.3,2.4-2.3c1.9,0,3.2,0.7,3.3,2.8
		C166.1,439.1,164.4,439.9,162.4,440.6z"/>
	<path class="st2" d="M156,431.9c0.6-0.3,1.1-0.6,1.7-0.9c0.1,0.2,0.2,0.4,0.3,0.6C157.3,431.8,156.7,431.9,156,431.9
		C156,431.9,156,431.9,156,431.9z"/>
	<path class="st2" d="M181.8,423c0.3,0.9,0,1.7-0.6,2.4C181,424.5,181,423.7,181.8,423z"/>
	<path class="st3" d="M188.4,431.1c1.9,0.4,4.6-1.4,5.6,1.8c-0.7-0.1-1.4-0.1-2-0.2c-0.7-0.7-1.6-0.7-2.5-0.5
		C188.7,432.2,188.3,431.8,188.4,431.1z"/>
	<path class="st2" d="M189.5,432.2c0.9-0.2,1.8-0.3,2.5,0.5C191.1,433,190.2,433.1,189.5,432.2z"/>
</g>
</svg>
