<svg id="圖層_1" data-name="圖層 1" xmlns="http://www.w3.org/2000/svg" viewBox="0 0 511.84 511.8"><defs><style>.cls-1{fill:#be1d35;}</style></defs><path class="cls-1" d="M270.9-107c-3.37,8.13-4.11,16.88-5.83,25.37C254.85-31.08,244.9,19.47,234.75,70c-5,24.71-29.65,47.35-54.94,51.06-6,.88-11.91.69-17.89.69q-107.7,0-215.4,0c-29,0-61.86-25.45-65.65-61.12-4.23-39.86-10.27-79.53-15.5-119.29q-7.23-54.91-14.42-109.82a144.26,144.26,0,0,0-2.76-16.72c-2.2-8.66-7.8-12.68-16.7-12.74-14.32-.11-28.67-.73-43-.09-13.39.6-23.81-2.88-29.47-15.92v-12c4-6.88,9-12.69,17-15h59c.34.29.66.78,1,.84,26.75,4,50.47,26.27,55.18,52.78,2.83,15.88,4.69,31.93,6.47,48,.5,4.53,2.13,5.23,6.17,5.22q123.42-.16,246.83-.08,49,0,97.93,0c10.85,0,17.63,5,21.3,15.34.12.36.62.59.94.88ZM63.9-91.72H-83c-3.33,0-6.67.07-10,0-2-.05-3,.34-2.62,2.8,1.78,12.52,3.35,25.07,5,37.61C-85.76-14.55-80.78,22.21-76,59-74.18,73.6-68.6,79-54,79q112.7,0,225.38,0c13.54,0,18.9-4.54,21.55-17.79q14.76-73.84,29.69-147.65c.84-4.13.23-5.36-4.31-5.35C166.85-91.66,115.38-91.72,63.9-91.72Z" transform="translate(240.94 240.91)"/><path class="cls-1" d="M-79,270.9c-1.42-1.68-3.58-1.4-5.4-1.89-29-7.86-51.73-36.93-49.55-65.3,2-26.48,17.39-44.51,40.69-55.51,22-10.4,42.59-5.43,61,9.27C-17.79,169-8.51,183.81-6.55,202.6a48.2,48.2,0,0,1-4,24.86c-10.16,22.85-26.8,38-52,42.67-.21,0-.33.5-.49.77Zm8.56-42.75C-55.59,228.18-49,221.71-49,207s-6.47-21.3-21.21-21.34-21.46,6.52-21.51,21.12S-85.14,228.13-70.43,228.15Z" transform="translate(240.94 240.91)"/><path class="cls-1" d="M176.93,270.9c-1.42-1.68-3.58-1.4-5.4-1.89-29-7.86-51.73-36.93-49.55-65.3,2-26.48,17.39-44.51,40.69-55.51,22-10.4,42.59-5.43,61,9.27,14.45,11.52,23.71,26.34,25.7,45.13a45.3,45.3,0,0,1-2.48,20.64c-9.26,25-26.26,41.45-53,46.76-.37.08-.65.59-1,.9Zm8.62-42.75c14.81,0,21.36-6.48,21.37-21.18s-6.51-21.26-21.27-21.28-21.43,6.57-21.45,21.18S170.83,228.14,185.55,228.15Z" transform="translate(240.94 240.91)"/></svg>