<svg id="圖層_1" data-name="圖層 1" xmlns="http://www.w3.org/2000/svg" viewBox="0 0 33.6 27.1"><defs><style>.cls-1{fill:#061a2e;}</style></defs><path class="cls-1" d="M9.58,29a3.36,3.36,0,1,1,3.32-3.36A3.35,3.35,0,0,1,9.58,29Zm0-4.74A1.38,1.38,0,1,0,11,25.65,1.41,1.41,0,0,0,9.58,24.27Z" transform="translate(-0.65 -1.91)"/><path class="cls-1" d="M18.13,29a3.36,3.36,0,1,1,3.32-3.36A3.35,3.35,0,0,1,18.13,29Zm0-4.74a1.38,1.38,0,1,0,1.43,1.38A1.41,1.41,0,0,0,18.13,24.27Z" transform="translate(-0.65 -1.91)"/><path class="cls-1" d="M22.08,20.37H5.83a1,1,0,0,1-.89-.63L.71,8.23a1.07,1.07,0,0,1,.1-.92.94.94,0,0,1,.78-.43H21.28a1,1,0,0,1,0,2H3l3.5,9.53H21.4L26.6,2.58a1,1,0,0,1,.89-.67H33.3a1,1,0,0,1,1,1,1,1,0,0,1-1,1H28.17L23,19.7A1,1,0,0,1,22.08,20.37Z" transform="translate(-0.65 -1.91)"/></svg>